<mxfile host="app.diagrams.net" agent="Mozilla/5.0 (Windows NT 10.0; Win64; x64) AppleWebKit/537.36 (KHTML, like Gecko) Chrome/131.0.0.0 Safari/537.36" version="26.0.5" pages="5">
  <diagram id="gwZuCnDtprSXznQZ7Ef3" name="Page-1">
    <mxGraphModel dx="3560" dy="1851" grid="1" gridSize="10" guides="1" tooltips="1" connect="1" arrows="1" fold="1" page="1" pageScale="1" pageWidth="850" pageHeight="1100" math="0" shadow="0">
      <root>
        <mxCell id="0" />
        <mxCell id="1" parent="0" />
        <mxCell id="VSgS5F7AN9F9pFCRdqw3-1" value="&lt;font style=&quot;font-size: 20px;&quot;&gt;Customer&amp;nbsp;&lt;/font&gt;" style="rounded=0;whiteSpace=wrap;html=1;" vertex="1" parent="1">
          <mxGeometry x="20" y="60" width="270" height="70" as="geometry" />
        </mxCell>
        <mxCell id="VSgS5F7AN9F9pFCRdqw3-2" value="Show / Search&lt;div&gt;item&lt;/div&gt;" style="ellipse;whiteSpace=wrap;html=1;" vertex="1" parent="1">
          <mxGeometry x="410" y="40" width="125" height="125" as="geometry" />
        </mxCell>
        <mxCell id="VSgS5F7AN9F9pFCRdqw3-4" value="DISH_TABLE" style="html=1;dashed=0;whiteSpace=wrap;shape=partialRectangle;right=0;" vertex="1" parent="1">
          <mxGeometry x="730" y="70" width="150" height="60" as="geometry" />
        </mxCell>
        <mxCell id="VSgS5F7AN9F9pFCRdqw3-5" value="" style="endArrow=classic;html=1;rounded=0;fontSize=12;startSize=8;endSize=8;curved=1;exitX=1;exitY=0.286;exitDx=0;exitDy=0;exitPerimeter=0;" edge="1" parent="1">
          <mxGeometry width="50" height="50" relative="1" as="geometry">
            <mxPoint x="292" y="80.01999999999998" as="sourcePoint" />
            <mxPoint x="412" y="80" as="targetPoint" />
          </mxGeometry>
        </mxCell>
        <mxCell id="VSgS5F7AN9F9pFCRdqw3-6" value="" style="endArrow=classic;html=1;rounded=0;fontSize=12;startSize=8;endSize=8;curved=1;exitX=1;exitY=0.286;exitDx=0;exitDy=0;exitPerimeter=0;" edge="1" parent="1">
          <mxGeometry width="50" height="50" relative="1" as="geometry">
            <mxPoint x="537" y="81" as="sourcePoint" />
            <mxPoint x="720" y="80" as="targetPoint" />
          </mxGeometry>
        </mxCell>
        <mxCell id="VSgS5F7AN9F9pFCRdqw3-8" value="" style="endArrow=classic;html=1;rounded=0;fontSize=12;startSize=8;endSize=8;curved=1;" edge="1" parent="1">
          <mxGeometry width="50" height="50" relative="1" as="geometry">
            <mxPoint x="410" y="115" as="sourcePoint" />
            <mxPoint x="290" y="115" as="targetPoint" />
          </mxGeometry>
        </mxCell>
        <mxCell id="VSgS5F7AN9F9pFCRdqw3-9" value="" style="endArrow=classic;html=1;rounded=0;fontSize=12;startSize=8;endSize=8;curved=1;" edge="1" parent="1">
          <mxGeometry width="50" height="50" relative="1" as="geometry">
            <mxPoint x="720" y="116" as="sourcePoint" />
            <mxPoint x="535" y="116" as="targetPoint" />
          </mxGeometry>
        </mxCell>
        <mxCell id="VSgS5F7AN9F9pFCRdqw3-10" value="&lt;font style=&quot;font-size: 11px;&quot;&gt;show item&lt;/font&gt;" style="text;strokeColor=none;align=center;fillColor=none;html=1;verticalAlign=middle;whiteSpace=wrap;rounded=0;fontSize=16;" vertex="1" parent="1">
          <mxGeometry x="324" y="60" width="60" height="17" as="geometry" />
        </mxCell>
        <mxCell id="VSgS5F7AN9F9pFCRdqw3-11" value="&lt;font&gt;check for show item&lt;/font&gt;" style="text;strokeColor=none;align=center;fillColor=none;html=1;verticalAlign=middle;whiteSpace=wrap;rounded=0;fontSize=11;" vertex="1" parent="1">
          <mxGeometry x="541" y="60" width="100" height="17" as="geometry" />
        </mxCell>
        <mxCell id="VSgS5F7AN9F9pFCRdqw3-12" value="&lt;font&gt;Response&amp;nbsp;&lt;/font&gt;" style="text;strokeColor=none;align=center;fillColor=none;html=1;verticalAlign=middle;whiteSpace=wrap;rounded=0;fontSize=11;" vertex="1" parent="1">
          <mxGeometry x="554.5" y="95.5" width="79" height="16" as="geometry" />
        </mxCell>
        <mxCell id="VSgS5F7AN9F9pFCRdqw3-14" value="&lt;font&gt;Response accept / reject&lt;/font&gt;" style="text;strokeColor=none;align=center;fillColor=none;html=1;verticalAlign=middle;whiteSpace=wrap;rounded=0;fontSize=11;spacing=3;" vertex="1" parent="1">
          <mxGeometry x="308" y="98.5" width="92" height="10" as="geometry" />
        </mxCell>
        <mxCell id="VSgS5F7AN9F9pFCRdqw3-15" value="register&amp;nbsp;" style="ellipse;whiteSpace=wrap;html=1;" vertex="1" parent="1">
          <mxGeometry x="410" y="220" width="125" height="125" as="geometry" />
        </mxCell>
        <mxCell id="VSgS5F7AN9F9pFCRdqw3-16" value="" style="endArrow=none;html=1;rounded=0;fontSize=12;startSize=8;endSize=8;curved=1;entryX=0.908;entryY=0.21;entryDx=0;entryDy=0;entryPerimeter=0;" edge="1" parent="1" target="VSgS5F7AN9F9pFCRdqw3-15">
          <mxGeometry width="50" height="50" relative="1" as="geometry">
            <mxPoint x="422" y="246" as="sourcePoint" />
            <mxPoint x="517.75" y="245.5" as="targetPoint" />
          </mxGeometry>
        </mxCell>
        <mxCell id="VSgS5F7AN9F9pFCRdqw3-17" value="1.0" style="text;strokeColor=none;align=center;fillColor=none;html=1;verticalAlign=middle;whiteSpace=wrap;rounded=0;fontSize=16;" vertex="1" parent="1">
          <mxGeometry x="440.5" y="218" width="60" height="30" as="geometry" />
        </mxCell>
        <mxCell id="VSgS5F7AN9F9pFCRdqw3-18" value="" style="endArrow=classic;html=1;rounded=0;fontSize=12;startSize=8;endSize=8;curved=1;" edge="1" parent="1">
          <mxGeometry width="50" height="50" relative="1" as="geometry">
            <mxPoint x="280" y="260" as="sourcePoint" />
            <mxPoint x="404" y="260" as="targetPoint" />
          </mxGeometry>
        </mxCell>
        <mxCell id="VSgS5F7AN9F9pFCRdqw3-19" value="" style="endArrow=none;html=1;rounded=0;fontSize=12;startSize=8;endSize=8;curved=1;entryX=0.959;entryY=1.039;entryDx=0;entryDy=0;entryPerimeter=0;" edge="1" parent="1" target="VSgS5F7AN9F9pFCRdqw3-1">
          <mxGeometry width="50" height="50" relative="1" as="geometry">
            <mxPoint x="280" y="260" as="sourcePoint" />
            <mxPoint x="280" y="140" as="targetPoint" />
          </mxGeometry>
        </mxCell>
        <mxCell id="VSgS5F7AN9F9pFCRdqw3-20" value="USER_TABLE" style="html=1;dashed=0;whiteSpace=wrap;shape=partialRectangle;right=0;" vertex="1" parent="1">
          <mxGeometry x="730" y="285" width="150" height="95" as="geometry" />
        </mxCell>
        <mxCell id="VSgS5F7AN9F9pFCRdqw3-21" value="" style="endArrow=none;html=1;rounded=0;fontSize=12;startSize=8;endSize=8;curved=1;" edge="1" parent="1">
          <mxGeometry width="50" height="50" relative="1" as="geometry">
            <mxPoint x="533.9999999999999" y="260" as="sourcePoint" />
            <mxPoint x="590.67" y="260" as="targetPoint" />
          </mxGeometry>
        </mxCell>
        <mxCell id="VSgS5F7AN9F9pFCRdqw3-22" value="" style="endArrow=classic;html=1;rounded=0;fontSize=12;startSize=8;endSize=8;curved=1;" edge="1" parent="1">
          <mxGeometry width="50" height="50" relative="1" as="geometry">
            <mxPoint x="590" y="310" as="sourcePoint" />
            <mxPoint x="720" y="310" as="targetPoint" />
          </mxGeometry>
        </mxCell>
        <mxCell id="VSgS5F7AN9F9pFCRdqw3-25" value="" style="endArrow=none;html=1;rounded=0;fontSize=12;startSize=8;endSize=8;curved=1;" edge="1" parent="1">
          <mxGeometry width="50" height="50" relative="1" as="geometry">
            <mxPoint x="590" y="310" as="sourcePoint" />
            <mxPoint x="590" y="260" as="targetPoint" />
          </mxGeometry>
        </mxCell>
        <mxCell id="VSgS5F7AN9F9pFCRdqw3-26" value="" style="endArrow=none;html=1;rounded=0;fontSize=12;startSize=8;endSize=8;curved=1;" edge="1" parent="1">
          <mxGeometry width="50" height="50" relative="1" as="geometry">
            <mxPoint x="570" y="331" as="sourcePoint" />
            <mxPoint x="720" y="330" as="targetPoint" />
          </mxGeometry>
        </mxCell>
        <mxCell id="VSgS5F7AN9F9pFCRdqw3-27" value="" style="endArrow=none;html=1;rounded=0;fontSize=12;startSize=8;endSize=8;curved=1;" edge="1" parent="1">
          <mxGeometry width="50" height="50" relative="1" as="geometry">
            <mxPoint x="570" y="332" as="sourcePoint" />
            <mxPoint x="570" y="290" as="targetPoint" />
          </mxGeometry>
        </mxCell>
        <mxCell id="VSgS5F7AN9F9pFCRdqw3-28" value="" style="endArrow=classic;html=1;rounded=0;fontSize=12;startSize=8;endSize=8;curved=1;" edge="1" parent="1">
          <mxGeometry width="50" height="50" relative="1" as="geometry">
            <mxPoint x="570" y="290" as="sourcePoint" />
            <mxPoint x="537" y="290" as="targetPoint" />
          </mxGeometry>
        </mxCell>
        <mxCell id="VSgS5F7AN9F9pFCRdqw3-29" value="" style="endArrow=none;html=1;rounded=0;fontSize=12;startSize=8;endSize=8;curved=1;" edge="1" parent="1">
          <mxGeometry width="50" height="50" relative="1" as="geometry">
            <mxPoint x="260" y="290" as="sourcePoint" />
            <mxPoint x="400" y="290" as="targetPoint" />
          </mxGeometry>
        </mxCell>
        <mxCell id="VSgS5F7AN9F9pFCRdqw3-30" value="" style="endArrow=classic;html=1;rounded=0;fontSize=12;startSize=8;endSize=8;curved=1;entryX=0.884;entryY=1.039;entryDx=0;entryDy=0;entryPerimeter=0;" edge="1" parent="1" target="VSgS5F7AN9F9pFCRdqw3-1">
          <mxGeometry width="50" height="50" relative="1" as="geometry">
            <mxPoint x="260" y="290" as="sourcePoint" />
            <mxPoint x="260" y="140" as="targetPoint" />
          </mxGeometry>
        </mxCell>
        <mxCell id="VSgS5F7AN9F9pFCRdqw3-34" value="Login" style="ellipse;whiteSpace=wrap;html=1;" vertex="1" parent="1">
          <mxGeometry x="410" y="402" width="125" height="125" as="geometry" />
        </mxCell>
        <mxCell id="VSgS5F7AN9F9pFCRdqw3-35" value="1.1" style="text;strokeColor=none;align=center;fillColor=none;html=1;verticalAlign=middle;whiteSpace=wrap;rounded=0;fontSize=16;" vertex="1" parent="1">
          <mxGeometry x="440.5" y="400" width="60" height="30" as="geometry" />
        </mxCell>
        <mxCell id="VSgS5F7AN9F9pFCRdqw3-36" value="" style="endArrow=none;html=1;rounded=0;fontSize=12;startSize=8;endSize=8;curved=1;entryX=0.908;entryY=0.21;entryDx=0;entryDy=0;entryPerimeter=0;" edge="1" target="VSgS5F7AN9F9pFCRdqw3-34" parent="1">
          <mxGeometry width="50" height="50" relative="1" as="geometry">
            <mxPoint x="422" y="428" as="sourcePoint" />
            <mxPoint x="517.75" y="427.5" as="targetPoint" />
          </mxGeometry>
        </mxCell>
        <mxCell id="VSgS5F7AN9F9pFCRdqw3-37" value="" style="endArrow=none;html=1;rounded=0;fontSize=12;startSize=8;endSize=8;curved=1;entryX=0.779;entryY=1.003;entryDx=0;entryDy=0;entryPerimeter=0;" edge="1" parent="1" target="VSgS5F7AN9F9pFCRdqw3-1">
          <mxGeometry width="50" height="50" relative="1" as="geometry">
            <mxPoint x="230" y="432" as="sourcePoint" />
            <mxPoint x="230" y="140" as="targetPoint" />
          </mxGeometry>
        </mxCell>
        <mxCell id="VSgS5F7AN9F9pFCRdqw3-38" value="" style="endArrow=classic;html=1;rounded=0;fontSize=12;startSize=8;endSize=8;curved=1;" edge="1" parent="1">
          <mxGeometry width="50" height="50" relative="1" as="geometry">
            <mxPoint x="230" y="432" as="sourcePoint" />
            <mxPoint x="415" y="432" as="targetPoint" />
          </mxGeometry>
        </mxCell>
        <mxCell id="VSgS5F7AN9F9pFCRdqw3-41" value="" style="endArrow=none;html=1;rounded=0;fontSize=12;startSize=8;endSize=8;curved=1;" edge="1" parent="1">
          <mxGeometry width="50" height="50" relative="1" as="geometry">
            <mxPoint x="528" y="431" as="sourcePoint" />
            <mxPoint x="607" y="431" as="targetPoint" />
          </mxGeometry>
        </mxCell>
        <mxCell id="VSgS5F7AN9F9pFCRdqw3-43" value="" style="endArrow=none;html=1;rounded=0;fontSize=12;startSize=8;endSize=8;curved=1;" edge="1" parent="1">
          <mxGeometry width="50" height="50" relative="1" as="geometry">
            <mxPoint x="607" y="431" as="sourcePoint" />
            <mxPoint x="607" y="350" as="targetPoint" />
          </mxGeometry>
        </mxCell>
        <mxCell id="VSgS5F7AN9F9pFCRdqw3-44" value="" style="endArrow=classic;html=1;rounded=0;fontSize=12;startSize=8;endSize=8;curved=1;entryX=-0.01;entryY=0.684;entryDx=0;entryDy=0;entryPerimeter=0;" edge="1" parent="1" target="VSgS5F7AN9F9pFCRdqw3-20">
          <mxGeometry width="50" height="50" relative="1" as="geometry">
            <mxPoint x="607" y="350" as="sourcePoint" />
            <mxPoint x="656" y="350" as="targetPoint" />
          </mxGeometry>
        </mxCell>
        <mxCell id="VSgS5F7AN9F9pFCRdqw3-45" value="" style="endArrow=none;html=1;rounded=0;fontSize=12;startSize=8;endSize=8;curved=1;entryX=0;entryY=0.916;entryDx=0;entryDy=0;entryPerimeter=0;" edge="1" parent="1" target="VSgS5F7AN9F9pFCRdqw3-20">
          <mxGeometry width="50" height="50" relative="1" as="geometry">
            <mxPoint x="640" y="372" as="sourcePoint" />
            <mxPoint x="720" y="372" as="targetPoint" />
          </mxGeometry>
        </mxCell>
        <mxCell id="VSgS5F7AN9F9pFCRdqw3-46" value="" style="endArrow=classic;html=1;rounded=0;fontSize=12;startSize=8;endSize=8;curved=1;" edge="1" parent="1">
          <mxGeometry width="50" height="50" relative="1" as="geometry">
            <mxPoint x="640" y="472" as="sourcePoint" />
            <mxPoint x="537" y="472" as="targetPoint" />
          </mxGeometry>
        </mxCell>
        <mxCell id="VSgS5F7AN9F9pFCRdqw3-47" value="" style="endArrow=none;html=1;rounded=0;fontSize=12;startSize=8;endSize=8;curved=1;" edge="1" parent="1">
          <mxGeometry width="50" height="50" relative="1" as="geometry">
            <mxPoint x="640" y="472" as="sourcePoint" />
            <mxPoint x="640" y="372" as="targetPoint" />
          </mxGeometry>
        </mxCell>
        <mxCell id="VSgS5F7AN9F9pFCRdqw3-49" value="" style="endArrow=none;html=1;rounded=0;fontSize=12;startSize=8;endSize=8;curved=1;" edge="1" parent="1">
          <mxGeometry width="50" height="50" relative="1" as="geometry">
            <mxPoint x="200" y="477" as="sourcePoint" />
            <mxPoint x="406" y="477" as="targetPoint" />
          </mxGeometry>
        </mxCell>
        <mxCell id="VSgS5F7AN9F9pFCRdqw3-50" value="" style="endArrow=classic;html=1;rounded=0;fontSize=12;startSize=8;endSize=8;curved=1;entryX=0.667;entryY=1;entryDx=0;entryDy=0;entryPerimeter=0;" edge="1" parent="1" target="VSgS5F7AN9F9pFCRdqw3-1">
          <mxGeometry width="50" height="50" relative="1" as="geometry">
            <mxPoint x="200" y="478" as="sourcePoint" />
            <mxPoint x="200" y="140" as="targetPoint" />
          </mxGeometry>
        </mxCell>
        <mxCell id="VSgS5F7AN9F9pFCRdqw3-53" value="place order" style="ellipse;whiteSpace=wrap;html=1;" vertex="1" parent="1">
          <mxGeometry x="411" y="592" width="125" height="125" as="geometry" />
        </mxCell>
        <mxCell id="VSgS5F7AN9F9pFCRdqw3-54" value="" style="endArrow=none;html=1;rounded=0;fontSize=12;startSize=8;endSize=8;curved=1;entryX=0.908;entryY=0.21;entryDx=0;entryDy=0;entryPerimeter=0;" edge="1" target="VSgS5F7AN9F9pFCRdqw3-53" parent="1">
          <mxGeometry width="50" height="50" relative="1" as="geometry">
            <mxPoint x="423" y="618" as="sourcePoint" />
            <mxPoint x="518.75" y="617.5" as="targetPoint" />
          </mxGeometry>
        </mxCell>
        <mxCell id="VSgS5F7AN9F9pFCRdqw3-55" value="1.2" style="text;strokeColor=none;align=center;fillColor=none;html=1;verticalAlign=middle;whiteSpace=wrap;rounded=0;fontSize=16;" vertex="1" parent="1">
          <mxGeometry x="441.5" y="590" width="60" height="30" as="geometry" />
        </mxCell>
        <mxCell id="VSgS5F7AN9F9pFCRdqw3-56" value="" style="endArrow=classic;html=1;rounded=0;fontSize=12;startSize=8;endSize=8;curved=1;exitX=0.5;exitY=1;exitDx=0;exitDy=0;entryX=0.5;entryY=0;entryDx=0;entryDy=0;" edge="1" parent="1" source="VSgS5F7AN9F9pFCRdqw3-2" target="VSgS5F7AN9F9pFCRdqw3-15">
          <mxGeometry width="50" height="50" relative="1" as="geometry">
            <mxPoint x="480" y="180" as="sourcePoint" />
            <mxPoint x="620" y="150" as="targetPoint" />
          </mxGeometry>
        </mxCell>
        <mxCell id="VSgS5F7AN9F9pFCRdqw3-57" value="" style="endArrow=classic;html=1;rounded=0;fontSize=12;startSize=8;endSize=8;curved=1;entryX=0.5;entryY=0;entryDx=0;entryDy=0;" edge="1" parent="1" target="VSgS5F7AN9F9pFCRdqw3-35">
          <mxGeometry width="50" height="50" relative="1" as="geometry">
            <mxPoint x="471" y="345" as="sourcePoint" />
            <mxPoint x="471" y="395" as="targetPoint" />
          </mxGeometry>
        </mxCell>
        <mxCell id="VSgS5F7AN9F9pFCRdqw3-58" value="" style="endArrow=classic;html=1;rounded=0;fontSize=12;startSize=8;endSize=8;curved=1;exitX=0.5;exitY=1;exitDx=0;exitDy=0;" edge="1" parent="1" source="VSgS5F7AN9F9pFCRdqw3-34">
          <mxGeometry width="50" height="50" relative="1" as="geometry">
            <mxPoint x="460" y="580" as="sourcePoint" />
            <mxPoint x="473" y="590" as="targetPoint" />
          </mxGeometry>
        </mxCell>
        <mxCell id="VSgS5F7AN9F9pFCRdqw3-59" value="ORDER_TABLE" style="html=1;dashed=0;whiteSpace=wrap;shape=partialRectangle;right=0;" vertex="1" parent="1">
          <mxGeometry x="730" y="680" width="150" height="95" as="geometry" />
        </mxCell>
        <mxCell id="VSgS5F7AN9F9pFCRdqw3-60" value="" style="endArrow=none;html=1;rounded=0;fontSize=12;startSize=8;endSize=8;curved=1;entryX=0.554;entryY=1.046;entryDx=0;entryDy=0;entryPerimeter=0;" edge="1" parent="1" target="VSgS5F7AN9F9pFCRdqw3-1">
          <mxGeometry width="50" height="50" relative="1" as="geometry">
            <mxPoint x="170" y="630" as="sourcePoint" />
            <mxPoint x="170" y="140" as="targetPoint" />
          </mxGeometry>
        </mxCell>
        <mxCell id="VSgS5F7AN9F9pFCRdqw3-61" value="" style="endArrow=classic;html=1;rounded=0;fontSize=12;startSize=8;endSize=8;curved=1;" edge="1" parent="1">
          <mxGeometry width="50" height="50" relative="1" as="geometry">
            <mxPoint x="170" y="630" as="sourcePoint" />
            <mxPoint x="410" y="630" as="targetPoint" />
          </mxGeometry>
        </mxCell>
        <mxCell id="VSgS5F7AN9F9pFCRdqw3-63" value="" style="endArrow=none;html=1;rounded=0;fontSize=12;startSize=8;endSize=8;curved=1;exitX=0.959;exitY=0.247;exitDx=0;exitDy=0;exitPerimeter=0;" edge="1" parent="1">
          <mxGeometry width="50" height="50" relative="1" as="geometry">
            <mxPoint x="535.995" y="628.8749999999999" as="sourcePoint" />
            <mxPoint x="620" y="629" as="targetPoint" />
          </mxGeometry>
        </mxCell>
        <mxCell id="VSgS5F7AN9F9pFCRdqw3-64" value="" style="endArrow=none;html=1;rounded=0;fontSize=12;startSize=8;endSize=8;curved=1;" edge="1" parent="1">
          <mxGeometry width="50" height="50" relative="1" as="geometry">
            <mxPoint x="620" y="690" as="sourcePoint" />
            <mxPoint x="620" y="630" as="targetPoint" />
          </mxGeometry>
        </mxCell>
        <mxCell id="VSgS5F7AN9F9pFCRdqw3-65" value="" style="endArrow=classic;html=1;rounded=0;fontSize=12;startSize=8;endSize=8;curved=1;entryX=0;entryY=0.105;entryDx=0;entryDy=0;entryPerimeter=0;" edge="1" parent="1" target="VSgS5F7AN9F9pFCRdqw3-59">
          <mxGeometry width="50" height="50" relative="1" as="geometry">
            <mxPoint x="620" y="690" as="sourcePoint" />
            <mxPoint x="670" y="640" as="targetPoint" />
          </mxGeometry>
        </mxCell>
        <mxCell id="VSgS5F7AN9F9pFCRdqw3-66" value="" style="endArrow=none;html=1;rounded=0;fontSize=12;startSize=8;endSize=8;curved=1;" edge="1" parent="1">
          <mxGeometry width="50" height="50" relative="1" as="geometry">
            <mxPoint x="590" y="716" as="sourcePoint" />
            <mxPoint x="730" y="716" as="targetPoint" />
          </mxGeometry>
        </mxCell>
        <mxCell id="VSgS5F7AN9F9pFCRdqw3-67" value="" style="endArrow=none;html=1;rounded=0;fontSize=12;startSize=8;endSize=8;curved=1;" edge="1" parent="1">
          <mxGeometry width="50" height="50" relative="1" as="geometry">
            <mxPoint x="591" y="717" as="sourcePoint" />
            <mxPoint x="591" y="660" as="targetPoint" />
          </mxGeometry>
        </mxCell>
        <mxCell id="VSgS5F7AN9F9pFCRdqw3-68" value="" style="endArrow=classic;html=1;rounded=0;fontSize=12;startSize=8;endSize=8;curved=1;entryX=1.032;entryY=0.544;entryDx=0;entryDy=0;entryPerimeter=0;" edge="1" parent="1">
          <mxGeometry width="50" height="50" relative="1" as="geometry">
            <mxPoint x="591" y="660" as="sourcePoint" />
            <mxPoint x="538" y="660" as="targetPoint" />
          </mxGeometry>
        </mxCell>
        <mxCell id="VSgS5F7AN9F9pFCRdqw3-69" value="" style="endArrow=none;html=1;rounded=0;fontSize=12;startSize=8;endSize=8;curved=1;" edge="1" parent="1">
          <mxGeometry width="50" height="50" relative="1" as="geometry">
            <mxPoint x="140" y="660" as="sourcePoint" />
            <mxPoint x="409" y="660" as="targetPoint" />
          </mxGeometry>
        </mxCell>
        <mxCell id="VSgS5F7AN9F9pFCRdqw3-70" value="" style="endArrow=classic;html=1;rounded=0;fontSize=12;startSize=8;endSize=8;curved=1;entryX=0.449;entryY=1.039;entryDx=0;entryDy=0;entryPerimeter=0;" edge="1" parent="1" target="VSgS5F7AN9F9pFCRdqw3-1">
          <mxGeometry width="50" height="50" relative="1" as="geometry">
            <mxPoint x="140" y="660" as="sourcePoint" />
            <mxPoint x="140" y="140" as="targetPoint" />
          </mxGeometry>
        </mxCell>
        <mxCell id="VSgS5F7AN9F9pFCRdqw3-71" value="Add to cart" style="ellipse;whiteSpace=wrap;html=1;" vertex="1" parent="1">
          <mxGeometry x="411" y="782" width="125" height="125" as="geometry" />
        </mxCell>
        <mxCell id="VSgS5F7AN9F9pFCRdqw3-72" value="1.3" style="text;strokeColor=none;align=center;fillColor=none;html=1;verticalAlign=middle;whiteSpace=wrap;rounded=0;fontSize=16;" vertex="1" parent="1">
          <mxGeometry x="441.5" y="780" width="60" height="30" as="geometry" />
        </mxCell>
        <mxCell id="VSgS5F7AN9F9pFCRdqw3-73" value="" style="endArrow=none;html=1;rounded=0;fontSize=12;startSize=8;endSize=8;curved=1;entryX=0.908;entryY=0.21;entryDx=0;entryDy=0;entryPerimeter=0;" edge="1" target="VSgS5F7AN9F9pFCRdqw3-71" parent="1">
          <mxGeometry width="50" height="50" relative="1" as="geometry">
            <mxPoint x="423" y="808" as="sourcePoint" />
            <mxPoint x="518.75" y="807.5" as="targetPoint" />
          </mxGeometry>
        </mxCell>
        <mxCell id="VSgS5F7AN9F9pFCRdqw3-74" value="" style="endArrow=classic;html=1;rounded=0;fontSize=12;startSize=8;endSize=8;curved=1;exitX=0.5;exitY=1;exitDx=0;exitDy=0;" edge="1" parent="1">
          <mxGeometry width="50" height="50" relative="1" as="geometry">
            <mxPoint x="473.13" y="717" as="sourcePoint" />
            <mxPoint x="473.13" y="780" as="targetPoint" />
          </mxGeometry>
        </mxCell>
        <mxCell id="VSgS5F7AN9F9pFCRdqw3-75" value="" style="endArrow=none;html=1;rounded=0;fontSize=12;startSize=8;endSize=8;curved=1;entryX=0.333;entryY=1;entryDx=0;entryDy=0;entryPerimeter=0;" edge="1" parent="1" target="VSgS5F7AN9F9pFCRdqw3-1">
          <mxGeometry width="50" height="50" relative="1" as="geometry">
            <mxPoint x="110" y="810" as="sourcePoint" />
            <mxPoint x="109" y="140" as="targetPoint" />
          </mxGeometry>
        </mxCell>
        <mxCell id="VSgS5F7AN9F9pFCRdqw3-77" value="" style="endArrow=classic;html=1;rounded=0;fontSize=12;startSize=8;endSize=8;curved=1;entryX=0.072;entryY=0.224;entryDx=0;entryDy=0;entryPerimeter=0;" edge="1" parent="1" target="VSgS5F7AN9F9pFCRdqw3-71">
          <mxGeometry width="50" height="50" relative="1" as="geometry">
            <mxPoint x="110" y="810" as="sourcePoint" />
            <mxPoint x="160" y="760" as="targetPoint" />
          </mxGeometry>
        </mxCell>
        <mxCell id="VSgS5F7AN9F9pFCRdqw3-78" value="" style="endArrow=none;html=1;rounded=0;fontSize=12;startSize=8;endSize=8;curved=1;" edge="1" parent="1">
          <mxGeometry width="50" height="50" relative="1" as="geometry">
            <mxPoint x="529" y="810" as="sourcePoint" />
            <mxPoint x="640" y="810" as="targetPoint" />
          </mxGeometry>
        </mxCell>
        <mxCell id="VSgS5F7AN9F9pFCRdqw3-79" value="" style="endArrow=none;html=1;rounded=0;fontSize=12;startSize=8;endSize=8;curved=1;" edge="1" parent="1">
          <mxGeometry width="50" height="50" relative="1" as="geometry">
            <mxPoint x="640" y="810" as="sourcePoint" />
            <mxPoint x="639.5" y="740" as="targetPoint" />
          </mxGeometry>
        </mxCell>
        <mxCell id="VSgS5F7AN9F9pFCRdqw3-80" value="" style="endArrow=classic;html=1;rounded=0;fontSize=12;startSize=8;endSize=8;curved=1;entryX=-0.014;entryY=0.627;entryDx=0;entryDy=0;entryPerimeter=0;" edge="1" parent="1">
          <mxGeometry width="50" height="50" relative="1" as="geometry">
            <mxPoint x="639" y="740" as="sourcePoint" />
            <mxPoint x="726.9" y="739.5649999999999" as="targetPoint" />
          </mxGeometry>
        </mxCell>
        <mxCell id="VSgS5F7AN9F9pFCRdqw3-81" value="" style="endArrow=none;html=1;rounded=0;fontSize=12;startSize=8;endSize=8;curved=1;" edge="1" parent="1">
          <mxGeometry width="50" height="50" relative="1" as="geometry">
            <mxPoint x="680" y="760" as="sourcePoint" />
            <mxPoint x="730" y="760" as="targetPoint" />
          </mxGeometry>
        </mxCell>
        <mxCell id="VSgS5F7AN9F9pFCRdqw3-82" value="" style="endArrow=none;html=1;rounded=0;fontSize=12;startSize=8;endSize=8;curved=1;" edge="1" parent="1">
          <mxGeometry width="50" height="50" relative="1" as="geometry">
            <mxPoint x="680" y="850" as="sourcePoint" />
            <mxPoint x="680" y="760" as="targetPoint" />
          </mxGeometry>
        </mxCell>
        <mxCell id="VSgS5F7AN9F9pFCRdqw3-83" value="" style="endArrow=classic;html=1;rounded=0;fontSize=12;startSize=8;endSize=8;curved=1;" edge="1" parent="1">
          <mxGeometry width="50" height="50" relative="1" as="geometry">
            <mxPoint x="680" y="850" as="sourcePoint" />
            <mxPoint x="540" y="850" as="targetPoint" />
          </mxGeometry>
        </mxCell>
        <mxCell id="VSgS5F7AN9F9pFCRdqw3-84" value="" style="endArrow=none;html=1;rounded=0;fontSize=12;startSize=8;endSize=8;curved=1;" edge="1" parent="1">
          <mxGeometry width="50" height="50" relative="1" as="geometry">
            <mxPoint x="73" y="854" as="sourcePoint" />
            <mxPoint x="407" y="854" as="targetPoint" />
          </mxGeometry>
        </mxCell>
        <mxCell id="VSgS5F7AN9F9pFCRdqw3-85" value="" style="endArrow=classic;html=1;rounded=0;fontSize=12;startSize=8;endSize=8;curved=1;entryX=0.201;entryY=1.024;entryDx=0;entryDy=0;entryPerimeter=0;" edge="1" parent="1" target="VSgS5F7AN9F9pFCRdqw3-1">
          <mxGeometry width="50" height="50" relative="1" as="geometry">
            <mxPoint x="73" y="854" as="sourcePoint" />
            <mxPoint x="73" y="140" as="targetPoint" />
          </mxGeometry>
        </mxCell>
        <mxCell id="VSgS5F7AN9F9pFCRdqw3-89" value="" style="endArrow=classic;html=1;rounded=0;fontSize=12;startSize=8;endSize=8;curved=1;exitX=0.5;exitY=1;exitDx=0;exitDy=0;entryX=0.5;entryY=0;entryDx=0;entryDy=0;" edge="1" parent="1" source="VSgS5F7AN9F9pFCRdqw3-71">
          <mxGeometry width="50" height="50" relative="1" as="geometry">
            <mxPoint x="480" y="910" as="sourcePoint" />
            <mxPoint x="473.4999999999999" y="990" as="targetPoint" />
          </mxGeometry>
        </mxCell>
        <mxCell id="VSgS5F7AN9F9pFCRdqw3-90" value="Payment&amp;nbsp;" style="ellipse;whiteSpace=wrap;html=1;" vertex="1" parent="1">
          <mxGeometry x="411" y="992" width="125" height="125" as="geometry" />
        </mxCell>
        <mxCell id="VSgS5F7AN9F9pFCRdqw3-91" value="" style="endArrow=none;html=1;rounded=0;fontSize=12;startSize=8;endSize=8;curved=1;entryX=0.908;entryY=0.21;entryDx=0;entryDy=0;entryPerimeter=0;" edge="1" target="VSgS5F7AN9F9pFCRdqw3-90" parent="1">
          <mxGeometry width="50" height="50" relative="1" as="geometry">
            <mxPoint x="423" y="1018" as="sourcePoint" />
            <mxPoint x="518.75" y="1017.5" as="targetPoint" />
          </mxGeometry>
        </mxCell>
        <mxCell id="VSgS5F7AN9F9pFCRdqw3-92" value="1.4" style="text;strokeColor=none;align=center;fillColor=none;html=1;verticalAlign=middle;whiteSpace=wrap;rounded=0;fontSize=16;" vertex="1" parent="1">
          <mxGeometry x="441.5" y="990" width="60" height="30" as="geometry" />
        </mxCell>
        <mxCell id="VSgS5F7AN9F9pFCRdqw3-93" value="ORDER_TABLE" style="html=1;dashed=0;whiteSpace=wrap;shape=partialRectangle;right=0;" vertex="1" parent="1">
          <mxGeometry x="730" y="1007" width="150" height="95" as="geometry" />
        </mxCell>
        <mxCell id="VSgS5F7AN9F9pFCRdqw3-97" value="" style="endArrow=none;html=1;rounded=0;fontSize=12;startSize=8;endSize=8;curved=1;entryX=0.116;entryY=1.003;entryDx=0;entryDy=0;entryPerimeter=0;" edge="1" parent="1" target="VSgS5F7AN9F9pFCRdqw3-1">
          <mxGeometry width="50" height="50" relative="1" as="geometry">
            <mxPoint x="50" y="1030" as="sourcePoint" />
            <mxPoint x="50" y="140" as="targetPoint" />
          </mxGeometry>
        </mxCell>
        <mxCell id="VSgS5F7AN9F9pFCRdqw3-98" value="" style="endArrow=classic;html=1;rounded=0;fontSize=12;startSize=8;endSize=8;curved=1;" edge="1" parent="1">
          <mxGeometry width="50" height="50" relative="1" as="geometry">
            <mxPoint x="50" y="1030" as="sourcePoint" />
            <mxPoint x="400" y="1030" as="targetPoint" />
          </mxGeometry>
        </mxCell>
        <mxCell id="VSgS5F7AN9F9pFCRdqw3-99" value="" style="endArrow=classic;html=1;rounded=0;fontSize=12;startSize=8;endSize=8;curved=1;" edge="1" parent="1">
          <mxGeometry width="50" height="50" relative="1" as="geometry">
            <mxPoint x="538" y="1030" as="sourcePoint" />
            <mxPoint x="719" y="1030" as="targetPoint" />
          </mxGeometry>
        </mxCell>
        <mxCell id="VSgS5F7AN9F9pFCRdqw3-101" value="" style="endArrow=classic;html=1;rounded=0;fontSize=12;startSize=8;endSize=8;curved=1;" edge="1" parent="1">
          <mxGeometry width="50" height="50" relative="1" as="geometry">
            <mxPoint x="720" y="1080" as="sourcePoint" />
            <mxPoint x="534" y="1080" as="targetPoint" />
          </mxGeometry>
        </mxCell>
        <mxCell id="VSgS5F7AN9F9pFCRdqw3-102" value="" style="endArrow=none;html=1;rounded=0;fontSize=12;startSize=8;endSize=8;curved=1;" edge="1" parent="1">
          <mxGeometry width="50" height="50" relative="1" as="geometry">
            <mxPoint x="30" y="1080" as="sourcePoint" />
            <mxPoint x="404" y="1080" as="targetPoint" />
          </mxGeometry>
        </mxCell>
        <mxCell id="VSgS5F7AN9F9pFCRdqw3-104" value="" style="endArrow=classic;html=1;rounded=0;fontSize=12;startSize=8;endSize=8;curved=1;" edge="1" parent="1">
          <mxGeometry width="50" height="50" relative="1" as="geometry">
            <mxPoint x="30" y="1079.5" as="sourcePoint" />
            <mxPoint x="30" y="130" as="targetPoint" />
          </mxGeometry>
        </mxCell>
        <mxCell id="VSgS5F7AN9F9pFCRdqw3-105" value="&lt;font&gt;Request for Registration&amp;nbsp;&lt;/font&gt;" style="text;strokeColor=none;align=center;fillColor=none;html=1;verticalAlign=middle;whiteSpace=wrap;rounded=0;fontSize=11;" vertex="1" parent="1">
          <mxGeometry x="283" y="236" width="128.63" height="16" as="geometry" />
        </mxCell>
        <mxCell id="VSgS5F7AN9F9pFCRdqw3-106" value="&lt;font&gt;Check for Registration&amp;nbsp;&lt;/font&gt;" style="text;strokeColor=none;align=center;fillColor=none;html=1;verticalAlign=middle;whiteSpace=wrap;rounded=0;fontSize=11;" vertex="1" parent="1">
          <mxGeometry x="598.5" y="280" width="120" height="20" as="geometry" />
        </mxCell>
        <mxCell id="VSgS5F7AN9F9pFCRdqw3-107" value="&lt;font&gt;Response&amp;nbsp;&lt;/font&gt;" style="text;strokeColor=none;align=center;fillColor=none;html=1;verticalAlign=middle;whiteSpace=wrap;rounded=0;fontSize=11;" vertex="1" parent="1">
          <mxGeometry x="627" y="312" width="63" height="18" as="geometry" />
        </mxCell>
        <mxCell id="VSgS5F7AN9F9pFCRdqw3-108" value="&lt;font&gt;Response accept / reject&lt;/font&gt;" style="text;strokeColor=none;align=center;fillColor=none;html=1;verticalAlign=middle;whiteSpace=wrap;rounded=0;fontSize=11;spacing=3;" vertex="1" parent="1">
          <mxGeometry x="271" y="274" width="134" height="10" as="geometry" />
        </mxCell>
        <mxCell id="VSgS5F7AN9F9pFCRdqw3-109" value="&lt;font&gt;Request for login&lt;/font&gt;" style="text;strokeColor=none;align=center;fillColor=none;html=1;verticalAlign=middle;whiteSpace=wrap;rounded=0;fontSize=11;" vertex="1" parent="1">
          <mxGeometry x="280" y="409" width="99.25" height="16" as="geometry" />
        </mxCell>
        <mxCell id="VSgS5F7AN9F9pFCRdqw3-111" value="&lt;font&gt;Check for login&lt;/font&gt;" style="text;strokeColor=none;align=center;fillColor=none;html=1;verticalAlign=middle;whiteSpace=wrap;rounded=0;fontSize=11;" vertex="1" parent="1">
          <mxGeometry x="529" y="404" width="73.5" height="18" as="geometry" />
        </mxCell>
        <mxCell id="VSgS5F7AN9F9pFCRdqw3-113" value="&lt;font&gt;Response&amp;nbsp;&lt;/font&gt;" style="text;strokeColor=none;align=center;fillColor=none;html=1;verticalAlign=middle;whiteSpace=wrap;rounded=0;fontSize=11;" vertex="1" parent="1">
          <mxGeometry x="543.5" y="451" width="63" height="18" as="geometry" />
        </mxCell>
        <mxCell id="VSgS5F7AN9F9pFCRdqw3-114" value="&lt;font&gt;Response accept / reject&lt;/font&gt;" style="text;strokeColor=none;align=center;fillColor=none;html=1;verticalAlign=middle;whiteSpace=wrap;rounded=0;fontSize=11;spacing=3;" vertex="1" parent="1">
          <mxGeometry x="249.25" y="459.5" width="138" height="10" as="geometry" />
        </mxCell>
        <mxCell id="VSgS5F7AN9F9pFCRdqw3-115" value="&lt;font&gt;Request for food order&lt;/font&gt;" style="text;strokeColor=none;align=center;fillColor=none;html=1;verticalAlign=middle;whiteSpace=wrap;rounded=0;fontSize=11;" vertex="1" parent="1">
          <mxGeometry x="249.25" y="610" width="130" height="16" as="geometry" />
        </mxCell>
        <mxCell id="VSgS5F7AN9F9pFCRdqw3-116" value="&lt;font style=&quot;font-size: 11px;&quot;&gt;Check for food order details&lt;/font&gt;" style="text;strokeColor=none;align=center;fillColor=none;html=1;verticalAlign=middle;whiteSpace=wrap;rounded=0;fontSize=16;" vertex="1" parent="1">
          <mxGeometry x="610" y="660" width="130" height="20" as="geometry" />
        </mxCell>
        <mxCell id="VSgS5F7AN9F9pFCRdqw3-117" value="&lt;font style=&quot;font-size: 11px;&quot;&gt;Response&amp;nbsp;&lt;/font&gt;" style="text;strokeColor=none;align=center;fillColor=none;html=1;verticalAlign=middle;whiteSpace=wrap;rounded=0;fontSize=16;" vertex="1" parent="1">
          <mxGeometry x="640" y="696" width="63" height="18" as="geometry" />
        </mxCell>
        <mxCell id="VSgS5F7AN9F9pFCRdqw3-118" value="&lt;font&gt;Request for add to cart&lt;/font&gt;" style="text;strokeColor=none;align=center;fillColor=none;html=1;verticalAlign=middle;whiteSpace=wrap;rounded=0;fontSize=11;" vertex="1" parent="1">
          <mxGeometry x="240" y="787" width="130" height="16" as="geometry" />
        </mxCell>
        <mxCell id="VSgS5F7AN9F9pFCRdqw3-119" value="&lt;font style=&quot;font-size: 11px;&quot;&gt;Check for cart&lt;/font&gt;" style="text;strokeColor=none;align=center;fillColor=none;html=1;verticalAlign=middle;whiteSpace=wrap;rounded=0;fontSize=16;" vertex="1" parent="1">
          <mxGeometry x="525.5" y="786" width="109" height="20" as="geometry" />
        </mxCell>
        <mxCell id="VSgS5F7AN9F9pFCRdqw3-120" value="&lt;font style=&quot;font-size: 11px;&quot;&gt;Response&amp;nbsp;&lt;/font&gt;" style="text;strokeColor=none;align=center;fillColor=none;html=1;verticalAlign=middle;whiteSpace=wrap;rounded=0;fontSize=16;" vertex="1" parent="1">
          <mxGeometry x="564" y="830" width="63" height="18" as="geometry" />
        </mxCell>
        <mxCell id="VSgS5F7AN9F9pFCRdqw3-123" value="&lt;font&gt;Response accept / reject&lt;/font&gt;" style="text;strokeColor=none;align=center;fillColor=none;html=1;verticalAlign=middle;whiteSpace=wrap;rounded=0;fontSize=11;spacing=3;" vertex="1" parent="1">
          <mxGeometry x="245.25" y="646" width="138" height="10" as="geometry" />
        </mxCell>
        <mxCell id="VSgS5F7AN9F9pFCRdqw3-124" value="&lt;font&gt;Response accept / reject&lt;/font&gt;" style="text;strokeColor=none;align=center;fillColor=none;html=1;verticalAlign=middle;whiteSpace=wrap;rounded=0;fontSize=11;spacing=3;" vertex="1" parent="1">
          <mxGeometry x="236.25" y="839" width="138" height="10" as="geometry" />
        </mxCell>
        <mxCell id="VSgS5F7AN9F9pFCRdqw3-125" value="&lt;font&gt;Request for payment&lt;/font&gt;" style="text;strokeColor=none;align=center;fillColor=none;html=1;verticalAlign=middle;whiteSpace=wrap;rounded=0;fontSize=11;" vertex="1" parent="1">
          <mxGeometry x="220" y="1009" width="130" height="16" as="geometry" />
        </mxCell>
        <mxCell id="VSgS5F7AN9F9pFCRdqw3-126" value="&lt;font style=&quot;font-size: 11px;&quot;&gt;Check for payment&lt;/font&gt;" style="text;strokeColor=none;align=center;fillColor=none;html=1;verticalAlign=middle;whiteSpace=wrap;rounded=0;fontSize=16;" vertex="1" parent="1">
          <mxGeometry x="554.5" y="1005" width="109" height="20" as="geometry" />
        </mxCell>
        <mxCell id="VSgS5F7AN9F9pFCRdqw3-127" value="&lt;font&gt;Response accept / reject&lt;/font&gt;" style="text;strokeColor=none;align=center;fillColor=none;html=1;verticalAlign=middle;whiteSpace=wrap;rounded=0;fontSize=11;spacing=3;" vertex="1" parent="1">
          <mxGeometry x="216" y="1066" width="138" height="10" as="geometry" />
        </mxCell>
        <mxCell id="VSgS5F7AN9F9pFCRdqw3-128" value="&lt;font style=&quot;font-size: 11px;&quot;&gt;Response&amp;nbsp;&lt;/font&gt;" style="text;strokeColor=none;align=center;fillColor=none;html=1;verticalAlign=middle;whiteSpace=wrap;rounded=0;fontSize=16;" vertex="1" parent="1">
          <mxGeometry x="584" y="1059" width="63" height="18" as="geometry" />
        </mxCell>
      </root>
    </mxGraphModel>
  </diagram>
  <diagram name="Page-2" id="bynP_VhIJrZ0j5GYNZCu">
    <mxGraphModel dx="1246" dy="1698" grid="1" gridSize="10" guides="1" tooltips="1" connect="1" arrows="1" fold="1" page="1" pageScale="1" pageWidth="850" pageHeight="1100" math="0" shadow="0">
      <root>
        <mxCell id="0" />
        <mxCell id="1" parent="0" />
        <mxCell id="3TbSqOOEeaeC1xooJYjK-1" value="&lt;span style=&quot;font-size: 30px;&quot;&gt;ADIMN&lt;/span&gt;" style="rounded=0;whiteSpace=wrap;html=1;" vertex="1" parent="1">
          <mxGeometry x="421" y="-950" width="250" height="70" as="geometry" />
        </mxCell>
        <mxCell id="3TbSqOOEeaeC1xooJYjK-2" value="" style="endArrow=classic;html=1;rounded=0;" edge="1" parent="1">
          <mxGeometry width="50" height="50" relative="1" as="geometry">
            <mxPoint x="681" y="-938" as="sourcePoint" />
            <mxPoint x="781" y="-938" as="targetPoint" />
          </mxGeometry>
        </mxCell>
        <mxCell id="3TbSqOOEeaeC1xooJYjK-3" value="" style="endArrow=classic;html=1;rounded=0;" edge="1" parent="1">
          <mxGeometry width="50" height="50" relative="1" as="geometry">
            <mxPoint x="781" y="-890" as="sourcePoint" />
            <mxPoint x="681" y="-890" as="targetPoint" />
          </mxGeometry>
        </mxCell>
        <mxCell id="3TbSqOOEeaeC1xooJYjK-4" value="" style="endArrow=classic;html=1;rounded=0;" edge="1" parent="1">
          <mxGeometry width="50" height="50" relative="1" as="geometry">
            <mxPoint x="938" y="-741.75" as="sourcePoint" />
            <mxPoint x="1098" y="-741" as="targetPoint" />
          </mxGeometry>
        </mxCell>
        <mxCell id="3TbSqOOEeaeC1xooJYjK-5" value="" style="endArrow=classic;html=1;rounded=0;" edge="1" parent="1">
          <mxGeometry width="50" height="50" relative="1" as="geometry">
            <mxPoint x="1096" y="-700" as="sourcePoint" />
            <mxPoint x="936" y="-700.25" as="targetPoint" />
          </mxGeometry>
        </mxCell>
        <mxCell id="3TbSqOOEeaeC1xooJYjK-7" value="Check dish details" style="text;strokeColor=none;align=center;fillColor=none;html=1;verticalAlign=middle;whiteSpace=wrap;rounded=0;" vertex="1" parent="1">
          <mxGeometry x="951.5" y="-764" width="116.5" height="25" as="geometry" />
        </mxCell>
        <mxCell id="3TbSqOOEeaeC1xooJYjK-8" value="Response accept/reject" style="text;strokeColor=none;align=center;fillColor=none;html=1;verticalAlign=middle;whiteSpace=wrap;rounded=0;" vertex="1" parent="1">
          <mxGeometry x="682.24" y="-915" width="102.25" height="20" as="geometry" />
        </mxCell>
        <mxCell id="3TbSqOOEeaeC1xooJYjK-9" value="Response" style="text;strokeColor=none;align=center;fillColor=none;html=1;verticalAlign=middle;whiteSpace=wrap;rounded=0;" vertex="1" parent="1">
          <mxGeometry x="974.5" y="-721.5" width="70" height="22.5" as="geometry" />
        </mxCell>
        <mxCell id="3TbSqOOEeaeC1xooJYjK-27" value="1" style="group" vertex="1" connectable="0" parent="1">
          <mxGeometry x="793" y="-980" width="130" height="130" as="geometry" />
        </mxCell>
        <mxCell id="3TbSqOOEeaeC1xooJYjK-28" value="" style="ellipse;whiteSpace=wrap;html=1;aspect=fixed;" vertex="1" parent="3TbSqOOEeaeC1xooJYjK-27">
          <mxGeometry width="130" height="130" as="geometry" />
        </mxCell>
        <mxCell id="3TbSqOOEeaeC1xooJYjK-29" value="&lt;font style=&quot;font-size: 15px;&quot;&gt;Login&lt;/font&gt;" style="text;strokeColor=none;align=center;fillColor=none;html=1;verticalAlign=middle;whiteSpace=wrap;rounded=0;" vertex="1" parent="3TbSqOOEeaeC1xooJYjK-27">
          <mxGeometry x="12.5" y="51.25" width="105" height="27.5" as="geometry" />
        </mxCell>
        <mxCell id="3TbSqOOEeaeC1xooJYjK-30" value="" style="endArrow=none;html=1;rounded=0;exitX=0.082;exitY=0.237;exitDx=0;exitDy=0;exitPerimeter=0;entryX=0.906;entryY=0.23;entryDx=0;entryDy=0;entryPerimeter=0;" edge="1" parent="3TbSqOOEeaeC1xooJYjK-27" source="3TbSqOOEeaeC1xooJYjK-28" target="3TbSqOOEeaeC1xooJYjK-28">
          <mxGeometry width="50" height="50" relative="1" as="geometry">
            <mxPoint x="35" y="30" as="sourcePoint" />
            <mxPoint x="95" y="30" as="targetPoint" />
          </mxGeometry>
        </mxCell>
        <mxCell id="3TbSqOOEeaeC1xooJYjK-31" value="&lt;font style=&quot;font-size: 17px;&quot;&gt;1.0&lt;/font&gt;" style="text;strokeColor=none;align=center;fillColor=none;html=1;verticalAlign=middle;whiteSpace=wrap;rounded=0;" vertex="1" parent="3TbSqOOEeaeC1xooJYjK-27">
          <mxGeometry x="34" y="7" width="57.5" height="20" as="geometry" />
        </mxCell>
        <mxCell id="3TbSqOOEeaeC1xooJYjK-37" value="" style="group" vertex="1" connectable="0" parent="1">
          <mxGeometry x="795" y="-615" width="130" height="130" as="geometry" />
        </mxCell>
        <mxCell id="3TbSqOOEeaeC1xooJYjK-38" value="" style="ellipse;whiteSpace=wrap;html=1;aspect=fixed;" vertex="1" parent="3TbSqOOEeaeC1xooJYjK-37">
          <mxGeometry width="130" height="130" as="geometry" />
        </mxCell>
        <mxCell id="3TbSqOOEeaeC1xooJYjK-39" value="&lt;span style=&quot;font-size: 15px;&quot;&gt;View order&lt;/span&gt;" style="text;strokeColor=none;align=center;fillColor=none;html=1;verticalAlign=middle;whiteSpace=wrap;rounded=0;" vertex="1" parent="3TbSqOOEeaeC1xooJYjK-37">
          <mxGeometry x="12.5" y="51.25" width="105" height="27.5" as="geometry" />
        </mxCell>
        <mxCell id="3TbSqOOEeaeC1xooJYjK-40" value="" style="endArrow=none;html=1;rounded=0;exitX=0.082;exitY=0.237;exitDx=0;exitDy=0;exitPerimeter=0;entryX=0.906;entryY=0.23;entryDx=0;entryDy=0;entryPerimeter=0;" edge="1" parent="3TbSqOOEeaeC1xooJYjK-37" source="3TbSqOOEeaeC1xooJYjK-38" target="3TbSqOOEeaeC1xooJYjK-38">
          <mxGeometry width="50" height="50" relative="1" as="geometry">
            <mxPoint x="35" y="30" as="sourcePoint" />
            <mxPoint x="95" y="30" as="targetPoint" />
          </mxGeometry>
        </mxCell>
        <mxCell id="3TbSqOOEeaeC1xooJYjK-41" value="&lt;font style=&quot;font-size: 17px;&quot;&gt;3.0&lt;/font&gt;" style="text;strokeColor=none;align=center;fillColor=none;html=1;verticalAlign=middle;whiteSpace=wrap;rounded=0;" vertex="1" parent="3TbSqOOEeaeC1xooJYjK-37">
          <mxGeometry x="34" y="7" width="57.5" height="20" as="geometry" />
        </mxCell>
        <mxCell id="3TbSqOOEeaeC1xooJYjK-42" value="" style="group" vertex="1" connectable="0" parent="1">
          <mxGeometry x="798" y="-443" width="130" height="130" as="geometry" />
        </mxCell>
        <mxCell id="3TbSqOOEeaeC1xooJYjK-43" value="" style="ellipse;whiteSpace=wrap;html=1;aspect=fixed;" vertex="1" parent="3TbSqOOEeaeC1xooJYjK-42">
          <mxGeometry width="130" height="130" as="geometry" />
        </mxCell>
        <mxCell id="3TbSqOOEeaeC1xooJYjK-44" value="&lt;font style=&quot;font-size: 15px;&quot;&gt;View payment&lt;/font&gt;" style="text;strokeColor=none;align=center;fillColor=none;html=1;verticalAlign=middle;whiteSpace=wrap;rounded=0;" vertex="1" parent="3TbSqOOEeaeC1xooJYjK-42">
          <mxGeometry x="12.5" y="51.25" width="105" height="27.5" as="geometry" />
        </mxCell>
        <mxCell id="3TbSqOOEeaeC1xooJYjK-45" value="" style="endArrow=none;html=1;rounded=0;exitX=0.082;exitY=0.237;exitDx=0;exitDy=0;exitPerimeter=0;entryX=0.906;entryY=0.23;entryDx=0;entryDy=0;entryPerimeter=0;" edge="1" parent="3TbSqOOEeaeC1xooJYjK-42" source="3TbSqOOEeaeC1xooJYjK-43" target="3TbSqOOEeaeC1xooJYjK-43">
          <mxGeometry width="50" height="50" relative="1" as="geometry">
            <mxPoint x="35" y="30" as="sourcePoint" />
            <mxPoint x="95" y="30" as="targetPoint" />
          </mxGeometry>
        </mxCell>
        <mxCell id="3TbSqOOEeaeC1xooJYjK-46" value="&lt;font style=&quot;font-size: 17px;&quot;&gt;4.0&lt;/font&gt;" style="text;strokeColor=none;align=center;fillColor=none;html=1;verticalAlign=middle;whiteSpace=wrap;rounded=0;" vertex="1" parent="3TbSqOOEeaeC1xooJYjK-42">
          <mxGeometry x="34" y="7" width="57.5" height="20" as="geometry" />
        </mxCell>
        <mxCell id="3TbSqOOEeaeC1xooJYjK-63" value="Request for Login" style="text;strokeColor=none;align=center;fillColor=none;html=1;verticalAlign=middle;whiteSpace=wrap;rounded=0;" vertex="1" parent="1">
          <mxGeometry x="682.24" y="-970" width="100" height="30" as="geometry" />
        </mxCell>
        <mxCell id="3TbSqOOEeaeC1xooJYjK-73" value="" style="endArrow=classic;html=1;rounded=0;" edge="1" parent="1">
          <mxGeometry width="50" height="50" relative="1" as="geometry">
            <mxPoint x="640" y="-740" as="sourcePoint" />
            <mxPoint x="790" y="-740" as="targetPoint" />
          </mxGeometry>
        </mxCell>
        <mxCell id="3TbSqOOEeaeC1xooJYjK-74" value="" style="endArrow=none;html=1;rounded=0;entryX=0.56;entryY=1;entryDx=0;entryDy=0;entryPerimeter=0;" edge="1" parent="1">
          <mxGeometry width="50" height="50" relative="1" as="geometry">
            <mxPoint x="640" y="-740" as="sourcePoint" />
            <mxPoint x="640" y="-880" as="targetPoint" />
          </mxGeometry>
        </mxCell>
        <mxCell id="3TbSqOOEeaeC1xooJYjK-75" value="" style="endArrow=none;html=1;rounded=0;" edge="1" parent="1">
          <mxGeometry width="50" height="50" relative="1" as="geometry">
            <mxPoint x="790" y="-350" as="sourcePoint" />
            <mxPoint x="470" y="-350" as="targetPoint" />
          </mxGeometry>
        </mxCell>
        <mxCell id="3TbSqOOEeaeC1xooJYjK-87" value="" style="endArrow=classic;html=1;rounded=0;" edge="1" parent="1">
          <mxGeometry width="50" height="50" relative="1" as="geometry">
            <mxPoint x="440" y="-250" as="sourcePoint" />
            <mxPoint x="784.49" y="-250" as="targetPoint" />
          </mxGeometry>
        </mxCell>
        <mxCell id="3TbSqOOEeaeC1xooJYjK-89" value="Request for report" style="text;strokeColor=none;align=center;fillColor=none;html=1;verticalAlign=middle;whiteSpace=wrap;rounded=0;" vertex="1" parent="1">
          <mxGeometry x="625" y="-278.5" width="113" height="30" as="geometry" />
        </mxCell>
        <mxCell id="3TbSqOOEeaeC1xooJYjK-91" value="" style="endArrow=none;html=1;rounded=0;" edge="1" parent="1">
          <mxGeometry width="50" height="50" relative="1" as="geometry">
            <mxPoint x="785.24" y="-210" as="sourcePoint" />
            <mxPoint x="423" y="-210" as="targetPoint" />
          </mxGeometry>
        </mxCell>
        <mxCell id="3TbSqOOEeaeC1xooJYjK-94" value="Respose accept / reject" style="text;strokeColor=none;align=center;fillColor=none;html=1;verticalAlign=middle;whiteSpace=wrap;rounded=0;" vertex="1" parent="1">
          <mxGeometry x="614" y="-232.5" width="135" height="21" as="geometry" />
        </mxCell>
        <mxCell id="3TbSqOOEeaeC1xooJYjK-99" value="" style="endArrow=classic;html=1;rounded=0;entryX=0.419;entryY=0.996;entryDx=0;entryDy=0;entryPerimeter=0;" edge="1" parent="1" target="3TbSqOOEeaeC1xooJYjK-132">
          <mxGeometry width="50" height="50" relative="1" as="geometry">
            <mxPoint x="1180" y="-244" as="sourcePoint" />
            <mxPoint x="1180" y="-320" as="targetPoint" />
          </mxGeometry>
        </mxCell>
        <mxCell id="3TbSqOOEeaeC1xooJYjK-100" value="" style="endArrow=classic;html=1;rounded=0;" edge="1" parent="1">
          <mxGeometry width="50" height="50" relative="1" as="geometry">
            <mxPoint x="1210" y="-205" as="sourcePoint" />
            <mxPoint x="939" y="-205" as="targetPoint" />
          </mxGeometry>
        </mxCell>
        <mxCell id="3TbSqOOEeaeC1xooJYjK-102" value="Generate Report for payment&amp;nbsp;" style="text;strokeColor=none;align=center;fillColor=none;html=1;verticalAlign=middle;whiteSpace=wrap;rounded=0;" vertex="1" parent="1">
          <mxGeometry x="936.5" y="-266.5" width="193.5" height="13" as="geometry" />
        </mxCell>
        <mxCell id="3TbSqOOEeaeC1xooJYjK-105" value="&lt;span style=&quot;font-size: 14px;&quot;&gt;DISH_TABLE&lt;/span&gt;" style="html=1;dashed=0;whiteSpace=wrap;shape=partialRectangle;right=0;" vertex="1" parent="1">
          <mxGeometry x="1105" y="-752" width="173.5" height="60" as="geometry" />
        </mxCell>
        <mxCell id="3TbSqOOEeaeC1xooJYjK-107" value="&lt;span style=&quot;font-size: 14px;&quot;&gt;ORDER_TABLE&lt;/span&gt;" style="html=1;dashed=0;whiteSpace=wrap;shape=partialRectangle;right=0;" vertex="1" parent="1">
          <mxGeometry x="1105" y="-600" width="173.5" height="95" as="geometry" />
        </mxCell>
        <mxCell id="3TbSqOOEeaeC1xooJYjK-109" value="1" style="group" vertex="1" connectable="0" parent="1">
          <mxGeometry x="795" y="-783" width="130" height="130" as="geometry" />
        </mxCell>
        <mxCell id="3TbSqOOEeaeC1xooJYjK-110" value="" style="ellipse;whiteSpace=wrap;html=1;aspect=fixed;" vertex="1" parent="3TbSqOOEeaeC1xooJYjK-109">
          <mxGeometry width="130" height="130" as="geometry" />
        </mxCell>
        <mxCell id="3TbSqOOEeaeC1xooJYjK-111" value="&lt;font style=&quot;font-size: 15px;&quot;&gt;Manage Dish&lt;/font&gt;" style="text;strokeColor=none;align=center;fillColor=none;html=1;verticalAlign=middle;whiteSpace=wrap;rounded=0;" vertex="1" parent="3TbSqOOEeaeC1xooJYjK-109">
          <mxGeometry x="12.5" y="51.25" width="105" height="27.5" as="geometry" />
        </mxCell>
        <mxCell id="3TbSqOOEeaeC1xooJYjK-112" value="" style="endArrow=none;html=1;rounded=0;exitX=0.082;exitY=0.237;exitDx=0;exitDy=0;exitPerimeter=0;entryX=0.906;entryY=0.23;entryDx=0;entryDy=0;entryPerimeter=0;" edge="1" parent="3TbSqOOEeaeC1xooJYjK-109" source="3TbSqOOEeaeC1xooJYjK-110" target="3TbSqOOEeaeC1xooJYjK-110">
          <mxGeometry width="50" height="50" relative="1" as="geometry">
            <mxPoint x="35" y="30" as="sourcePoint" />
            <mxPoint x="95" y="30" as="targetPoint" />
          </mxGeometry>
        </mxCell>
        <mxCell id="3TbSqOOEeaeC1xooJYjK-113" value="&lt;font style=&quot;font-size: 17px;&quot;&gt;2.0&lt;/font&gt;" style="text;strokeColor=none;align=center;fillColor=none;html=1;verticalAlign=middle;whiteSpace=wrap;rounded=0;" vertex="1" parent="3TbSqOOEeaeC1xooJYjK-109">
          <mxGeometry x="34" y="7" width="57.5" height="20" as="geometry" />
        </mxCell>
        <mxCell id="3TbSqOOEeaeC1xooJYjK-114" value="&lt;font style=&quot;font-size: 15px;&quot;&gt;Dish Manage&amp;nbsp;&lt;/font&gt;&lt;div&gt;&lt;font style=&quot;font-size: 15px;&quot;&gt;add, update,delete&lt;/font&gt;&lt;/div&gt;" style="text;strokeColor=none;align=center;fillColor=none;html=1;verticalAlign=middle;whiteSpace=wrap;rounded=0;" vertex="1" parent="1">
          <mxGeometry x="641.61" y="-780" width="139.63" height="27.5" as="geometry" />
        </mxCell>
        <mxCell id="3TbSqOOEeaeC1xooJYjK-116" value="" style="endArrow=none;html=1;rounded=0;" edge="1" parent="1">
          <mxGeometry width="50" height="50" relative="1" as="geometry">
            <mxPoint x="791" y="-692" as="sourcePoint" />
            <mxPoint x="600" y="-692" as="targetPoint" />
          </mxGeometry>
        </mxCell>
        <mxCell id="3TbSqOOEeaeC1xooJYjK-117" value="" style="endArrow=classic;html=1;rounded=0;entryX=0.468;entryY=1.029;entryDx=0;entryDy=0;entryPerimeter=0;" edge="1" parent="1">
          <mxGeometry width="50" height="50" relative="1" as="geometry">
            <mxPoint x="600" y="-692" as="sourcePoint" />
            <mxPoint x="600" y="-882" as="targetPoint" />
          </mxGeometry>
        </mxCell>
        <mxCell id="3TbSqOOEeaeC1xooJYjK-122" value="" style="endArrow=none;html=1;rounded=0;entryX=0.61;entryY=1.026;entryDx=0;entryDy=0;entryPerimeter=0;" edge="1" parent="1" target="3TbSqOOEeaeC1xooJYjK-1">
          <mxGeometry width="50" height="50" relative="1" as="geometry">
            <mxPoint x="575.49" y="-575.5" as="sourcePoint" />
            <mxPoint x="575" y="-870" as="targetPoint" />
          </mxGeometry>
        </mxCell>
        <mxCell id="3TbSqOOEeaeC1xooJYjK-123" value="" style="endArrow=classic;html=1;rounded=0;entryX=0.462;entryY=1.019;entryDx=0;entryDy=0;entryPerimeter=0;" edge="1" parent="1" target="3TbSqOOEeaeC1xooJYjK-1">
          <mxGeometry width="50" height="50" relative="1" as="geometry">
            <mxPoint x="535.49" y="-527.5" as="sourcePoint" />
            <mxPoint x="540" y="-870" as="targetPoint" />
          </mxGeometry>
        </mxCell>
        <mxCell id="3TbSqOOEeaeC1xooJYjK-124" value="" style="endArrow=none;html=1;rounded=0;" edge="1" parent="1">
          <mxGeometry width="50" height="50" relative="1" as="geometry">
            <mxPoint x="790" y="-527" as="sourcePoint" />
            <mxPoint x="535" y="-527" as="targetPoint" />
          </mxGeometry>
        </mxCell>
        <mxCell id="3TbSqOOEeaeC1xooJYjK-125" value="" style="endArrow=classic;html=1;rounded=0;" edge="1" parent="1">
          <mxGeometry width="50" height="50" relative="1" as="geometry">
            <mxPoint x="575" y="-575" as="sourcePoint" />
            <mxPoint x="790" y="-575" as="targetPoint" />
          </mxGeometry>
        </mxCell>
        <mxCell id="3TbSqOOEeaeC1xooJYjK-126" value="" style="endArrow=classic;html=1;rounded=0;" edge="1" parent="1">
          <mxGeometry width="50" height="50" relative="1" as="geometry">
            <mxPoint x="932" y="-573" as="sourcePoint" />
            <mxPoint x="1092" y="-572.25" as="targetPoint" />
          </mxGeometry>
        </mxCell>
        <mxCell id="3TbSqOOEeaeC1xooJYjK-127" value="" style="endArrow=classic;html=1;rounded=0;" edge="1" parent="1">
          <mxGeometry width="50" height="50" relative="1" as="geometry">
            <mxPoint x="1090" y="-531.25" as="sourcePoint" />
            <mxPoint x="930" y="-531.5" as="targetPoint" />
          </mxGeometry>
        </mxCell>
        <mxCell id="3TbSqOOEeaeC1xooJYjK-128" value="" style="endArrow=classic;html=1;rounded=0;entryX=0.206;entryY=1.042;entryDx=0;entryDy=0;entryPerimeter=0;" edge="1" parent="1" target="3TbSqOOEeaeC1xooJYjK-1">
          <mxGeometry width="50" height="50" relative="1" as="geometry">
            <mxPoint x="469.49" y="-349.5" as="sourcePoint" />
            <mxPoint x="471" y="-870" as="targetPoint" />
          </mxGeometry>
        </mxCell>
        <mxCell id="3TbSqOOEeaeC1xooJYjK-129" value="" style="endArrow=none;html=1;rounded=0;entryX=0.356;entryY=1;entryDx=0;entryDy=0;entryPerimeter=0;" edge="1" parent="1" target="3TbSqOOEeaeC1xooJYjK-1">
          <mxGeometry width="50" height="50" relative="1" as="geometry">
            <mxPoint x="509.49" y="-394.5" as="sourcePoint" />
            <mxPoint x="509" y="-800" as="targetPoint" />
          </mxGeometry>
        </mxCell>
        <mxCell id="3TbSqOOEeaeC1xooJYjK-130" value="" style="endArrow=classic;html=1;rounded=0;" edge="1" parent="1">
          <mxGeometry width="50" height="50" relative="1" as="geometry">
            <mxPoint x="510" y="-395" as="sourcePoint" />
            <mxPoint x="790" y="-395" as="targetPoint" />
          </mxGeometry>
        </mxCell>
        <mxCell id="3TbSqOOEeaeC1xooJYjK-132" value="&lt;span style=&quot;font-size: 14px;&quot;&gt;PAYMENT_TABLE&lt;/span&gt;" style="html=1;dashed=0;whiteSpace=wrap;shape=partialRectangle;right=0;" vertex="1" parent="1">
          <mxGeometry x="1107" y="-421" width="173.5" height="95" as="geometry" />
        </mxCell>
        <mxCell id="3TbSqOOEeaeC1xooJYjK-133" value="" style="endArrow=classic;html=1;rounded=0;" edge="1" parent="1">
          <mxGeometry width="50" height="50" relative="1" as="geometry">
            <mxPoint x="934" y="-394" as="sourcePoint" />
            <mxPoint x="1094" y="-393.25" as="targetPoint" />
          </mxGeometry>
        </mxCell>
        <mxCell id="3TbSqOOEeaeC1xooJYjK-134" value="" style="endArrow=classic;html=1;rounded=0;" edge="1" parent="1">
          <mxGeometry width="50" height="50" relative="1" as="geometry">
            <mxPoint x="1092" y="-352.25" as="sourcePoint" />
            <mxPoint x="932" y="-352.5" as="targetPoint" />
          </mxGeometry>
        </mxCell>
        <mxCell id="3TbSqOOEeaeC1xooJYjK-136" value="" style="endArrow=classic;html=1;rounded=0;entryX=0.086;entryY=1.006;entryDx=0;entryDy=0;entryPerimeter=0;" edge="1" parent="1">
          <mxGeometry width="50" height="50" relative="1" as="geometry">
            <mxPoint x="423" y="-210" as="sourcePoint" />
            <mxPoint x="425.5" y="-878.9999999999999" as="targetPoint" />
          </mxGeometry>
        </mxCell>
        <mxCell id="3TbSqOOEeaeC1xooJYjK-138" value="" style="endArrow=none;html=1;rounded=0;entryX=0.08;entryY=1.031;entryDx=0;entryDy=0;entryPerimeter=0;" edge="1" parent="1" target="3TbSqOOEeaeC1xooJYjK-1">
          <mxGeometry width="50" height="50" relative="1" as="geometry">
            <mxPoint x="441" y="-250" as="sourcePoint" />
            <mxPoint x="440.51" y="-850" as="targetPoint" />
          </mxGeometry>
        </mxCell>
        <mxCell id="3TbSqOOEeaeC1xooJYjK-140" value="" style="shape=document;whiteSpace=wrap;html=1;boundedLbl=1;" vertex="1" parent="1">
          <mxGeometry x="795" y="-269" width="132" height="88" as="geometry" />
        </mxCell>
        <mxCell id="3TbSqOOEeaeC1xooJYjK-141" value="" style="endArrow=none;html=1;rounded=0;exitX=-0.014;exitY=0.331;exitDx=0;exitDy=0;exitPerimeter=0;entryX=0.906;entryY=0.23;entryDx=0;entryDy=0;entryPerimeter=0;" edge="1" parent="1">
          <mxGeometry width="50" height="50" relative="1" as="geometry">
            <mxPoint x="794.152" y="-240.87199999999984" as="sourcePoint" />
            <mxPoint x="928" y="-241" as="targetPoint" />
          </mxGeometry>
        </mxCell>
        <mxCell id="3TbSqOOEeaeC1xooJYjK-142" value="&lt;font style=&quot;font-size: 17px;&quot;&gt;5.0&lt;/font&gt;" style="text;strokeColor=none;align=center;fillColor=none;html=1;verticalAlign=middle;whiteSpace=wrap;rounded=0;" vertex="1" parent="1">
          <mxGeometry x="831" y="-264" width="57.5" height="20" as="geometry" />
        </mxCell>
        <mxCell id="3TbSqOOEeaeC1xooJYjK-145" value="&lt;font style=&quot;font-size: 15px;&quot;&gt;Report&lt;/font&gt;" style="text;strokeColor=none;align=center;fillColor=none;html=1;verticalAlign=middle;whiteSpace=wrap;rounded=0;" vertex="1" parent="1">
          <mxGeometry x="808.5" y="-236" width="105" height="27.5" as="geometry" />
        </mxCell>
        <mxCell id="3TbSqOOEeaeC1xooJYjK-146" value="Response accept/reject" style="text;strokeColor=none;align=center;fillColor=none;html=1;verticalAlign=middle;whiteSpace=wrap;rounded=0;" vertex="1" parent="1">
          <mxGeometry x="637.61" y="-717" width="144" height="20" as="geometry" />
        </mxCell>
        <mxCell id="3TbSqOOEeaeC1xooJYjK-147" value="Request for view order" style="text;strokeColor=none;align=center;fillColor=none;html=1;verticalAlign=middle;whiteSpace=wrap;rounded=0;" vertex="1" parent="1">
          <mxGeometry x="641.61" y="-615" width="100" height="30" as="geometry" />
        </mxCell>
        <mxCell id="3TbSqOOEeaeC1xooJYjK-149" value="Check order details" style="text;strokeColor=none;align=center;fillColor=none;html=1;verticalAlign=middle;whiteSpace=wrap;rounded=0;" vertex="1" parent="1">
          <mxGeometry x="942" y="-610" width="116.5" height="25" as="geometry" />
        </mxCell>
        <mxCell id="3TbSqOOEeaeC1xooJYjK-150" value="Response accept/reject" style="text;strokeColor=none;align=center;fillColor=none;html=1;verticalAlign=middle;whiteSpace=wrap;rounded=0;" vertex="1" parent="1">
          <mxGeometry x="613.37" y="-556" width="148.63" height="20" as="geometry" />
        </mxCell>
        <mxCell id="3TbSqOOEeaeC1xooJYjK-151" value="Response" style="text;strokeColor=none;align=center;fillColor=none;html=1;verticalAlign=middle;whiteSpace=wrap;rounded=0;" vertex="1" parent="1">
          <mxGeometry x="968.5" y="-554" width="70" height="22.5" as="geometry" />
        </mxCell>
        <mxCell id="3TbSqOOEeaeC1xooJYjK-152" value="Request for view payment" style="text;strokeColor=none;align=center;fillColor=none;html=1;verticalAlign=middle;whiteSpace=wrap;rounded=0;" vertex="1" parent="1">
          <mxGeometry x="601" y="-426" width="158.5" height="30" as="geometry" />
        </mxCell>
        <mxCell id="3TbSqOOEeaeC1xooJYjK-153" value="Check payment details" style="text;strokeColor=none;align=center;fillColor=none;html=1;verticalAlign=middle;whiteSpace=wrap;rounded=0;" vertex="1" parent="1">
          <mxGeometry x="942" y="-421" width="140" height="25" as="geometry" />
        </mxCell>
        <mxCell id="3TbSqOOEeaeC1xooJYjK-154" value="Response" style="text;strokeColor=none;align=center;fillColor=none;html=1;verticalAlign=middle;whiteSpace=wrap;rounded=0;" vertex="1" parent="1">
          <mxGeometry x="978" y="-373" width="70" height="22.5" as="geometry" />
        </mxCell>
        <mxCell id="3TbSqOOEeaeC1xooJYjK-155" value="Response accept/reject" style="text;strokeColor=none;align=center;fillColor=none;html=1;verticalAlign=middle;whiteSpace=wrap;rounded=0;" vertex="1" parent="1">
          <mxGeometry x="594" y="-374.5" width="163" height="20" as="geometry" />
        </mxCell>
        <mxCell id="3TbSqOOEeaeC1xooJYjK-158" value="Generate Report for Order" style="text;strokeColor=none;align=center;fillColor=none;html=1;verticalAlign=middle;whiteSpace=wrap;rounded=0;" vertex="1" parent="1">
          <mxGeometry x="950.5" y="-224.5" width="148" height="13" as="geometry" />
        </mxCell>
        <mxCell id="3TbSqOOEeaeC1xooJYjK-159" value="" style="endArrow=none;html=1;rounded=0;" edge="1" parent="1">
          <mxGeometry width="50" height="50" relative="1" as="geometry">
            <mxPoint x="1180" y="-245" as="sourcePoint" />
            <mxPoint x="940" y="-245" as="targetPoint" />
          </mxGeometry>
        </mxCell>
        <mxCell id="3TbSqOOEeaeC1xooJYjK-160" value="" style="endArrow=none;html=1;rounded=0;exitX=0.588;exitY=1.006;exitDx=0;exitDy=0;exitPerimeter=0;" edge="1" parent="1">
          <mxGeometry width="50" height="50" relative="1" as="geometry">
            <mxPoint x="1209.018" y="-325.71000000000015" as="sourcePoint" />
            <mxPoint x="1210" y="-204.28" as="targetPoint" />
          </mxGeometry>
        </mxCell>
        <mxCell id="FyqrWjoDdgcM4q49aba6-2" value="" style="endArrow=classic;html=1;rounded=0;entryX=0.482;entryY=-0.014;entryDx=0;entryDy=0;entryPerimeter=0;" edge="1" parent="1" target="3TbSqOOEeaeC1xooJYjK-110">
          <mxGeometry width="50" height="50" relative="1" as="geometry">
            <mxPoint x="858" y="-850" as="sourcePoint" />
            <mxPoint x="858" y="-790" as="targetPoint" />
          </mxGeometry>
        </mxCell>
        <mxCell id="FyqrWjoDdgcM4q49aba6-3" value="" style="endArrow=classic;html=1;rounded=0;entryX=0.482;entryY=-0.014;entryDx=0;entryDy=0;entryPerimeter=0;exitX=0.5;exitY=1;exitDx=0;exitDy=0;" edge="1" parent="1" source="3TbSqOOEeaeC1xooJYjK-110">
          <mxGeometry width="50" height="50" relative="1" as="geometry">
            <mxPoint x="859.8" y="-640" as="sourcePoint" />
            <mxPoint x="860.2099999999999" y="-615" as="targetPoint" />
          </mxGeometry>
        </mxCell>
        <mxCell id="FyqrWjoDdgcM4q49aba6-5" value="" style="endArrow=classic;html=1;rounded=0;entryX=0.482;entryY=0;entryDx=0;entryDy=0;entryPerimeter=0;exitX=0.5;exitY=1;exitDx=0;exitDy=0;" edge="1" parent="1" target="3TbSqOOEeaeC1xooJYjK-43">
          <mxGeometry width="50" height="50" relative="1" as="geometry">
            <mxPoint x="860.71" y="-484" as="sourcePoint" />
            <mxPoint x="860.92" y="-446" as="targetPoint" />
          </mxGeometry>
        </mxCell>
        <mxCell id="FyqrWjoDdgcM4q49aba6-6" value="" style="endArrow=classic;html=1;rounded=0;exitX=0.5;exitY=1;exitDx=0;exitDy=0;" edge="1" parent="1">
          <mxGeometry width="50" height="50" relative="1" as="geometry">
            <mxPoint x="862.86" y="-313" as="sourcePoint" />
            <mxPoint x="863" y="-270" as="targetPoint" />
          </mxGeometry>
        </mxCell>
      </root>
    </mxGraphModel>
  </diagram>
  <diagram name="Page-3" id="PJiwZZmYplaoOokxKxA8">
    <mxGraphModel dx="1246" dy="598" grid="1" gridSize="10" guides="1" tooltips="1" connect="1" arrows="1" fold="1" page="1" pageScale="1" pageWidth="850" pageHeight="1100" math="0" shadow="0">
      <root>
        <mxCell id="0" />
        <mxCell id="1" parent="0" />
      </root>
    </mxGraphModel>
  </diagram>
  <diagram name="Page-2" id="08sN3jZD6G1-KT9lZhb-">
    <mxGraphModel dx="1246" dy="1698" grid="1" gridSize="10" guides="1" tooltips="1" connect="1" arrows="1" fold="1" page="1" pageScale="1" pageWidth="850" pageHeight="1100" math="0" shadow="0">
      <root>
        <mxCell id="0" />
        <mxCell id="1" parent="0" />
        <mxCell id="3TbSqOOEeaeC1xooJYjK-1" value="&lt;span style=&quot;font-size: 30px;&quot;&gt;ADIMN&lt;/span&gt;" style="rounded=0;whiteSpace=wrap;html=1;" vertex="1" parent="1">
          <mxGeometry x="421" y="-950" width="250" height="70" as="geometry" />
        </mxCell>
        <mxCell id="3TbSqOOEeaeC1xooJYjK-2" value="" style="endArrow=classic;html=1;rounded=0;" edge="1" parent="1">
          <mxGeometry width="50" height="50" relative="1" as="geometry">
            <mxPoint x="681" y="-938" as="sourcePoint" />
            <mxPoint x="781" y="-938" as="targetPoint" />
          </mxGeometry>
        </mxCell>
        <mxCell id="3TbSqOOEeaeC1xooJYjK-3" value="" style="endArrow=classic;html=1;rounded=0;" edge="1" parent="1">
          <mxGeometry width="50" height="50" relative="1" as="geometry">
            <mxPoint x="781" y="-890" as="sourcePoint" />
            <mxPoint x="681" y="-890" as="targetPoint" />
          </mxGeometry>
        </mxCell>
        <mxCell id="3TbSqOOEeaeC1xooJYjK-4" value="" style="endArrow=classic;html=1;rounded=0;" edge="1" parent="1">
          <mxGeometry width="50" height="50" relative="1" as="geometry">
            <mxPoint x="938" y="-741.75" as="sourcePoint" />
            <mxPoint x="1098" y="-741" as="targetPoint" />
          </mxGeometry>
        </mxCell>
        <mxCell id="3TbSqOOEeaeC1xooJYjK-5" value="" style="endArrow=classic;html=1;rounded=0;" edge="1" parent="1">
          <mxGeometry width="50" height="50" relative="1" as="geometry">
            <mxPoint x="1096" y="-700" as="sourcePoint" />
            <mxPoint x="936" y="-700.25" as="targetPoint" />
          </mxGeometry>
        </mxCell>
        <mxCell id="3TbSqOOEeaeC1xooJYjK-7" value="Check dish details" style="text;strokeColor=none;align=center;fillColor=none;html=1;verticalAlign=middle;whiteSpace=wrap;rounded=0;" vertex="1" parent="1">
          <mxGeometry x="951.5" y="-764" width="116.5" height="25" as="geometry" />
        </mxCell>
        <mxCell id="3TbSqOOEeaeC1xooJYjK-8" value="Response accept/reject" style="text;strokeColor=none;align=center;fillColor=none;html=1;verticalAlign=middle;whiteSpace=wrap;rounded=0;" vertex="1" parent="1">
          <mxGeometry x="682.24" y="-915" width="102.25" height="20" as="geometry" />
        </mxCell>
        <mxCell id="3TbSqOOEeaeC1xooJYjK-9" value="Response" style="text;strokeColor=none;align=center;fillColor=none;html=1;verticalAlign=middle;whiteSpace=wrap;rounded=0;" vertex="1" parent="1">
          <mxGeometry x="974.5" y="-721.5" width="70" height="22.5" as="geometry" />
        </mxCell>
        <mxCell id="3TbSqOOEeaeC1xooJYjK-27" value="1" style="group" vertex="1" connectable="0" parent="1">
          <mxGeometry x="793" y="-980" width="130" height="130" as="geometry" />
        </mxCell>
        <mxCell id="3TbSqOOEeaeC1xooJYjK-28" value="" style="ellipse;whiteSpace=wrap;html=1;aspect=fixed;" vertex="1" parent="3TbSqOOEeaeC1xooJYjK-27">
          <mxGeometry width="130" height="130" as="geometry" />
        </mxCell>
        <mxCell id="3TbSqOOEeaeC1xooJYjK-29" value="&lt;font style=&quot;font-size: 15px;&quot;&gt;Login&lt;/font&gt;" style="text;strokeColor=none;align=center;fillColor=none;html=1;verticalAlign=middle;whiteSpace=wrap;rounded=0;" vertex="1" parent="3TbSqOOEeaeC1xooJYjK-27">
          <mxGeometry x="12.5" y="51.25" width="105" height="27.5" as="geometry" />
        </mxCell>
        <mxCell id="3TbSqOOEeaeC1xooJYjK-30" value="" style="endArrow=none;html=1;rounded=0;exitX=0.082;exitY=0.237;exitDx=0;exitDy=0;exitPerimeter=0;entryX=0.906;entryY=0.23;entryDx=0;entryDy=0;entryPerimeter=0;" edge="1" parent="3TbSqOOEeaeC1xooJYjK-27" source="3TbSqOOEeaeC1xooJYjK-28" target="3TbSqOOEeaeC1xooJYjK-28">
          <mxGeometry width="50" height="50" relative="1" as="geometry">
            <mxPoint x="35" y="30" as="sourcePoint" />
            <mxPoint x="95" y="30" as="targetPoint" />
          </mxGeometry>
        </mxCell>
        <mxCell id="3TbSqOOEeaeC1xooJYjK-31" value="&lt;font style=&quot;font-size: 17px;&quot;&gt;1.0&lt;/font&gt;" style="text;strokeColor=none;align=center;fillColor=none;html=1;verticalAlign=middle;whiteSpace=wrap;rounded=0;" vertex="1" parent="3TbSqOOEeaeC1xooJYjK-27">
          <mxGeometry x="34" y="7" width="57.5" height="20" as="geometry" />
        </mxCell>
        <mxCell id="3TbSqOOEeaeC1xooJYjK-37" value="" style="group" vertex="1" connectable="0" parent="1">
          <mxGeometry x="795" y="-615" width="130" height="130" as="geometry" />
        </mxCell>
        <mxCell id="3TbSqOOEeaeC1xooJYjK-38" value="" style="ellipse;whiteSpace=wrap;html=1;aspect=fixed;" vertex="1" parent="3TbSqOOEeaeC1xooJYjK-37">
          <mxGeometry width="130" height="130" as="geometry" />
        </mxCell>
        <mxCell id="3TbSqOOEeaeC1xooJYjK-39" value="&lt;span style=&quot;font-size: 15px;&quot;&gt;View order&lt;/span&gt;" style="text;strokeColor=none;align=center;fillColor=none;html=1;verticalAlign=middle;whiteSpace=wrap;rounded=0;" vertex="1" parent="3TbSqOOEeaeC1xooJYjK-37">
          <mxGeometry x="12.5" y="51.25" width="105" height="27.5" as="geometry" />
        </mxCell>
        <mxCell id="3TbSqOOEeaeC1xooJYjK-40" value="" style="endArrow=none;html=1;rounded=0;exitX=0.082;exitY=0.237;exitDx=0;exitDy=0;exitPerimeter=0;entryX=0.906;entryY=0.23;entryDx=0;entryDy=0;entryPerimeter=0;" edge="1" parent="3TbSqOOEeaeC1xooJYjK-37" source="3TbSqOOEeaeC1xooJYjK-38" target="3TbSqOOEeaeC1xooJYjK-38">
          <mxGeometry width="50" height="50" relative="1" as="geometry">
            <mxPoint x="35" y="30" as="sourcePoint" />
            <mxPoint x="95" y="30" as="targetPoint" />
          </mxGeometry>
        </mxCell>
        <mxCell id="3TbSqOOEeaeC1xooJYjK-41" value="&lt;font style=&quot;font-size: 17px;&quot;&gt;3.0&lt;/font&gt;" style="text;strokeColor=none;align=center;fillColor=none;html=1;verticalAlign=middle;whiteSpace=wrap;rounded=0;" vertex="1" parent="3TbSqOOEeaeC1xooJYjK-37">
          <mxGeometry x="34" y="7" width="57.5" height="20" as="geometry" />
        </mxCell>
        <mxCell id="3TbSqOOEeaeC1xooJYjK-42" value="" style="group" vertex="1" connectable="0" parent="1">
          <mxGeometry x="798" y="-443" width="130" height="130" as="geometry" />
        </mxCell>
        <mxCell id="3TbSqOOEeaeC1xooJYjK-43" value="" style="ellipse;whiteSpace=wrap;html=1;aspect=fixed;" vertex="1" parent="3TbSqOOEeaeC1xooJYjK-42">
          <mxGeometry width="130" height="130" as="geometry" />
        </mxCell>
        <mxCell id="3TbSqOOEeaeC1xooJYjK-44" value="&lt;font style=&quot;font-size: 15px;&quot;&gt;View payment&lt;/font&gt;" style="text;strokeColor=none;align=center;fillColor=none;html=1;verticalAlign=middle;whiteSpace=wrap;rounded=0;" vertex="1" parent="3TbSqOOEeaeC1xooJYjK-42">
          <mxGeometry x="12.5" y="51.25" width="105" height="27.5" as="geometry" />
        </mxCell>
        <mxCell id="3TbSqOOEeaeC1xooJYjK-45" value="" style="endArrow=none;html=1;rounded=0;exitX=0.082;exitY=0.237;exitDx=0;exitDy=0;exitPerimeter=0;entryX=0.906;entryY=0.23;entryDx=0;entryDy=0;entryPerimeter=0;" edge="1" parent="3TbSqOOEeaeC1xooJYjK-42" source="3TbSqOOEeaeC1xooJYjK-43" target="3TbSqOOEeaeC1xooJYjK-43">
          <mxGeometry width="50" height="50" relative="1" as="geometry">
            <mxPoint x="35" y="30" as="sourcePoint" />
            <mxPoint x="95" y="30" as="targetPoint" />
          </mxGeometry>
        </mxCell>
        <mxCell id="3TbSqOOEeaeC1xooJYjK-46" value="&lt;font style=&quot;font-size: 17px;&quot;&gt;4.0&lt;/font&gt;" style="text;strokeColor=none;align=center;fillColor=none;html=1;verticalAlign=middle;whiteSpace=wrap;rounded=0;" vertex="1" parent="3TbSqOOEeaeC1xooJYjK-42">
          <mxGeometry x="34" y="7" width="57.5" height="20" as="geometry" />
        </mxCell>
        <mxCell id="3TbSqOOEeaeC1xooJYjK-63" value="Request for Login" style="text;strokeColor=none;align=center;fillColor=none;html=1;verticalAlign=middle;whiteSpace=wrap;rounded=0;" vertex="1" parent="1">
          <mxGeometry x="682.24" y="-970" width="100" height="30" as="geometry" />
        </mxCell>
        <mxCell id="3TbSqOOEeaeC1xooJYjK-73" value="" style="endArrow=classic;html=1;rounded=0;" edge="1" parent="1">
          <mxGeometry width="50" height="50" relative="1" as="geometry">
            <mxPoint x="640" y="-740" as="sourcePoint" />
            <mxPoint x="790" y="-740" as="targetPoint" />
          </mxGeometry>
        </mxCell>
        <mxCell id="3TbSqOOEeaeC1xooJYjK-74" value="" style="endArrow=none;html=1;rounded=0;entryX=0.56;entryY=1;entryDx=0;entryDy=0;entryPerimeter=0;" edge="1" parent="1">
          <mxGeometry width="50" height="50" relative="1" as="geometry">
            <mxPoint x="640" y="-740" as="sourcePoint" />
            <mxPoint x="640" y="-880" as="targetPoint" />
          </mxGeometry>
        </mxCell>
        <mxCell id="3TbSqOOEeaeC1xooJYjK-75" value="" style="endArrow=none;html=1;rounded=0;" edge="1" parent="1">
          <mxGeometry width="50" height="50" relative="1" as="geometry">
            <mxPoint x="790" y="-350" as="sourcePoint" />
            <mxPoint x="470" y="-350" as="targetPoint" />
          </mxGeometry>
        </mxCell>
        <mxCell id="3TbSqOOEeaeC1xooJYjK-87" value="" style="endArrow=classic;html=1;rounded=0;" edge="1" parent="1">
          <mxGeometry width="50" height="50" relative="1" as="geometry">
            <mxPoint x="440" y="-250" as="sourcePoint" />
            <mxPoint x="784.49" y="-250" as="targetPoint" />
          </mxGeometry>
        </mxCell>
        <mxCell id="3TbSqOOEeaeC1xooJYjK-89" value="Request for report" style="text;strokeColor=none;align=center;fillColor=none;html=1;verticalAlign=middle;whiteSpace=wrap;rounded=0;" vertex="1" parent="1">
          <mxGeometry x="625" y="-278.5" width="113" height="30" as="geometry" />
        </mxCell>
        <mxCell id="3TbSqOOEeaeC1xooJYjK-91" value="" style="endArrow=none;html=1;rounded=0;" edge="1" parent="1">
          <mxGeometry width="50" height="50" relative="1" as="geometry">
            <mxPoint x="785.24" y="-210" as="sourcePoint" />
            <mxPoint x="423" y="-210" as="targetPoint" />
          </mxGeometry>
        </mxCell>
        <mxCell id="3TbSqOOEeaeC1xooJYjK-94" value="Respose accept / reject" style="text;strokeColor=none;align=center;fillColor=none;html=1;verticalAlign=middle;whiteSpace=wrap;rounded=0;" vertex="1" parent="1">
          <mxGeometry x="614" y="-232.5" width="135" height="21" as="geometry" />
        </mxCell>
        <mxCell id="3TbSqOOEeaeC1xooJYjK-99" value="" style="endArrow=classic;html=1;rounded=0;entryX=0.419;entryY=0.996;entryDx=0;entryDy=0;entryPerimeter=0;" edge="1" parent="1" target="3TbSqOOEeaeC1xooJYjK-132">
          <mxGeometry width="50" height="50" relative="1" as="geometry">
            <mxPoint x="1180" y="-244" as="sourcePoint" />
            <mxPoint x="1180" y="-320" as="targetPoint" />
          </mxGeometry>
        </mxCell>
        <mxCell id="3TbSqOOEeaeC1xooJYjK-100" value="" style="endArrow=classic;html=1;rounded=0;" edge="1" parent="1">
          <mxGeometry width="50" height="50" relative="1" as="geometry">
            <mxPoint x="1210" y="-205" as="sourcePoint" />
            <mxPoint x="939" y="-205" as="targetPoint" />
          </mxGeometry>
        </mxCell>
        <mxCell id="3TbSqOOEeaeC1xooJYjK-102" value="Generate Report for payment&amp;nbsp;" style="text;strokeColor=none;align=center;fillColor=none;html=1;verticalAlign=middle;whiteSpace=wrap;rounded=0;" vertex="1" parent="1">
          <mxGeometry x="936.5" y="-266.5" width="193.5" height="13" as="geometry" />
        </mxCell>
        <mxCell id="3TbSqOOEeaeC1xooJYjK-105" value="&lt;span style=&quot;font-size: 14px;&quot;&gt;DISH_TABLE&lt;/span&gt;" style="html=1;dashed=0;whiteSpace=wrap;shape=partialRectangle;right=0;" vertex="1" parent="1">
          <mxGeometry x="1105" y="-752" width="173.5" height="60" as="geometry" />
        </mxCell>
        <mxCell id="3TbSqOOEeaeC1xooJYjK-107" value="&lt;span style=&quot;font-size: 14px;&quot;&gt;ORDER_TABLE&lt;/span&gt;" style="html=1;dashed=0;whiteSpace=wrap;shape=partialRectangle;right=0;" vertex="1" parent="1">
          <mxGeometry x="1105" y="-600" width="173.5" height="95" as="geometry" />
        </mxCell>
        <mxCell id="3TbSqOOEeaeC1xooJYjK-109" value="1" style="group" vertex="1" connectable="0" parent="1">
          <mxGeometry x="795" y="-783" width="130" height="130" as="geometry" />
        </mxCell>
        <mxCell id="3TbSqOOEeaeC1xooJYjK-110" value="" style="ellipse;whiteSpace=wrap;html=1;aspect=fixed;" vertex="1" parent="3TbSqOOEeaeC1xooJYjK-109">
          <mxGeometry width="130" height="130" as="geometry" />
        </mxCell>
        <mxCell id="3TbSqOOEeaeC1xooJYjK-111" value="&lt;font style=&quot;font-size: 15px;&quot;&gt;Manage Dish&lt;/font&gt;" style="text;strokeColor=none;align=center;fillColor=none;html=1;verticalAlign=middle;whiteSpace=wrap;rounded=0;" vertex="1" parent="3TbSqOOEeaeC1xooJYjK-109">
          <mxGeometry x="12.5" y="51.25" width="105" height="27.5" as="geometry" />
        </mxCell>
        <mxCell id="3TbSqOOEeaeC1xooJYjK-112" value="" style="endArrow=none;html=1;rounded=0;exitX=0.082;exitY=0.237;exitDx=0;exitDy=0;exitPerimeter=0;entryX=0.906;entryY=0.23;entryDx=0;entryDy=0;entryPerimeter=0;" edge="1" parent="3TbSqOOEeaeC1xooJYjK-109" source="3TbSqOOEeaeC1xooJYjK-110" target="3TbSqOOEeaeC1xooJYjK-110">
          <mxGeometry width="50" height="50" relative="1" as="geometry">
            <mxPoint x="35" y="30" as="sourcePoint" />
            <mxPoint x="95" y="30" as="targetPoint" />
          </mxGeometry>
        </mxCell>
        <mxCell id="3TbSqOOEeaeC1xooJYjK-113" value="&lt;font style=&quot;font-size: 17px;&quot;&gt;2.0&lt;/font&gt;" style="text;strokeColor=none;align=center;fillColor=none;html=1;verticalAlign=middle;whiteSpace=wrap;rounded=0;" vertex="1" parent="3TbSqOOEeaeC1xooJYjK-109">
          <mxGeometry x="34" y="7" width="57.5" height="20" as="geometry" />
        </mxCell>
        <mxCell id="3TbSqOOEeaeC1xooJYjK-114" value="&lt;font style=&quot;font-size: 15px;&quot;&gt;Dish Manage&amp;nbsp;&lt;/font&gt;&lt;div&gt;&lt;font style=&quot;font-size: 15px;&quot;&gt;add, update,delete&lt;/font&gt;&lt;/div&gt;" style="text;strokeColor=none;align=center;fillColor=none;html=1;verticalAlign=middle;whiteSpace=wrap;rounded=0;" vertex="1" parent="1">
          <mxGeometry x="641.61" y="-780" width="139.63" height="27.5" as="geometry" />
        </mxCell>
        <mxCell id="3TbSqOOEeaeC1xooJYjK-116" value="" style="endArrow=none;html=1;rounded=0;" edge="1" parent="1">
          <mxGeometry width="50" height="50" relative="1" as="geometry">
            <mxPoint x="791" y="-692" as="sourcePoint" />
            <mxPoint x="600" y="-692" as="targetPoint" />
          </mxGeometry>
        </mxCell>
        <mxCell id="3TbSqOOEeaeC1xooJYjK-117" value="" style="endArrow=classic;html=1;rounded=0;entryX=0.468;entryY=1.029;entryDx=0;entryDy=0;entryPerimeter=0;" edge="1" parent="1">
          <mxGeometry width="50" height="50" relative="1" as="geometry">
            <mxPoint x="600" y="-692" as="sourcePoint" />
            <mxPoint x="600" y="-882" as="targetPoint" />
          </mxGeometry>
        </mxCell>
        <mxCell id="3TbSqOOEeaeC1xooJYjK-122" value="" style="endArrow=none;html=1;rounded=0;entryX=0.61;entryY=1.026;entryDx=0;entryDy=0;entryPerimeter=0;" edge="1" parent="1" target="3TbSqOOEeaeC1xooJYjK-1">
          <mxGeometry width="50" height="50" relative="1" as="geometry">
            <mxPoint x="575.49" y="-575.5" as="sourcePoint" />
            <mxPoint x="575" y="-870" as="targetPoint" />
          </mxGeometry>
        </mxCell>
        <mxCell id="3TbSqOOEeaeC1xooJYjK-123" value="" style="endArrow=classic;html=1;rounded=0;entryX=0.462;entryY=1.019;entryDx=0;entryDy=0;entryPerimeter=0;" edge="1" parent="1" target="3TbSqOOEeaeC1xooJYjK-1">
          <mxGeometry width="50" height="50" relative="1" as="geometry">
            <mxPoint x="535.49" y="-527.5" as="sourcePoint" />
            <mxPoint x="540" y="-870" as="targetPoint" />
          </mxGeometry>
        </mxCell>
        <mxCell id="3TbSqOOEeaeC1xooJYjK-124" value="" style="endArrow=none;html=1;rounded=0;" edge="1" parent="1">
          <mxGeometry width="50" height="50" relative="1" as="geometry">
            <mxPoint x="790" y="-527" as="sourcePoint" />
            <mxPoint x="535" y="-527" as="targetPoint" />
          </mxGeometry>
        </mxCell>
        <mxCell id="3TbSqOOEeaeC1xooJYjK-125" value="" style="endArrow=classic;html=1;rounded=0;" edge="1" parent="1">
          <mxGeometry width="50" height="50" relative="1" as="geometry">
            <mxPoint x="575" y="-575" as="sourcePoint" />
            <mxPoint x="790" y="-575" as="targetPoint" />
          </mxGeometry>
        </mxCell>
        <mxCell id="3TbSqOOEeaeC1xooJYjK-126" value="" style="endArrow=classic;html=1;rounded=0;" edge="1" parent="1">
          <mxGeometry width="50" height="50" relative="1" as="geometry">
            <mxPoint x="932" y="-573" as="sourcePoint" />
            <mxPoint x="1092" y="-572.25" as="targetPoint" />
          </mxGeometry>
        </mxCell>
        <mxCell id="3TbSqOOEeaeC1xooJYjK-127" value="" style="endArrow=classic;html=1;rounded=0;" edge="1" parent="1">
          <mxGeometry width="50" height="50" relative="1" as="geometry">
            <mxPoint x="1090" y="-531.25" as="sourcePoint" />
            <mxPoint x="930" y="-531.5" as="targetPoint" />
          </mxGeometry>
        </mxCell>
        <mxCell id="3TbSqOOEeaeC1xooJYjK-128" value="" style="endArrow=classic;html=1;rounded=0;entryX=0.206;entryY=1.042;entryDx=0;entryDy=0;entryPerimeter=0;" edge="1" parent="1" target="3TbSqOOEeaeC1xooJYjK-1">
          <mxGeometry width="50" height="50" relative="1" as="geometry">
            <mxPoint x="469.49" y="-349.5" as="sourcePoint" />
            <mxPoint x="471" y="-870" as="targetPoint" />
          </mxGeometry>
        </mxCell>
        <mxCell id="3TbSqOOEeaeC1xooJYjK-129" value="" style="endArrow=none;html=1;rounded=0;entryX=0.356;entryY=1;entryDx=0;entryDy=0;entryPerimeter=0;" edge="1" parent="1" target="3TbSqOOEeaeC1xooJYjK-1">
          <mxGeometry width="50" height="50" relative="1" as="geometry">
            <mxPoint x="509.49" y="-394.5" as="sourcePoint" />
            <mxPoint x="509" y="-800" as="targetPoint" />
          </mxGeometry>
        </mxCell>
        <mxCell id="3TbSqOOEeaeC1xooJYjK-130" value="" style="endArrow=classic;html=1;rounded=0;" edge="1" parent="1">
          <mxGeometry width="50" height="50" relative="1" as="geometry">
            <mxPoint x="510" y="-395" as="sourcePoint" />
            <mxPoint x="790" y="-395" as="targetPoint" />
          </mxGeometry>
        </mxCell>
        <mxCell id="3TbSqOOEeaeC1xooJYjK-132" value="&lt;span style=&quot;font-size: 14px;&quot;&gt;PAYMENT_TABLE&lt;/span&gt;" style="html=1;dashed=0;whiteSpace=wrap;shape=partialRectangle;right=0;" vertex="1" parent="1">
          <mxGeometry x="1107" y="-421" width="173.5" height="95" as="geometry" />
        </mxCell>
        <mxCell id="3TbSqOOEeaeC1xooJYjK-133" value="" style="endArrow=classic;html=1;rounded=0;" edge="1" parent="1">
          <mxGeometry width="50" height="50" relative="1" as="geometry">
            <mxPoint x="934" y="-394" as="sourcePoint" />
            <mxPoint x="1094" y="-393.25" as="targetPoint" />
          </mxGeometry>
        </mxCell>
        <mxCell id="3TbSqOOEeaeC1xooJYjK-134" value="" style="endArrow=classic;html=1;rounded=0;" edge="1" parent="1">
          <mxGeometry width="50" height="50" relative="1" as="geometry">
            <mxPoint x="1092" y="-352.25" as="sourcePoint" />
            <mxPoint x="932" y="-352.5" as="targetPoint" />
          </mxGeometry>
        </mxCell>
        <mxCell id="3TbSqOOEeaeC1xooJYjK-136" value="" style="endArrow=classic;html=1;rounded=0;entryX=0.086;entryY=1.006;entryDx=0;entryDy=0;entryPerimeter=0;" edge="1" parent="1">
          <mxGeometry width="50" height="50" relative="1" as="geometry">
            <mxPoint x="423" y="-210" as="sourcePoint" />
            <mxPoint x="425.5" y="-878.9999999999999" as="targetPoint" />
          </mxGeometry>
        </mxCell>
        <mxCell id="3TbSqOOEeaeC1xooJYjK-138" value="" style="endArrow=none;html=1;rounded=0;entryX=0.08;entryY=1.031;entryDx=0;entryDy=0;entryPerimeter=0;" edge="1" parent="1" target="3TbSqOOEeaeC1xooJYjK-1">
          <mxGeometry width="50" height="50" relative="1" as="geometry">
            <mxPoint x="441" y="-250" as="sourcePoint" />
            <mxPoint x="440.51" y="-850" as="targetPoint" />
          </mxGeometry>
        </mxCell>
        <mxCell id="3TbSqOOEeaeC1xooJYjK-140" value="" style="shape=document;whiteSpace=wrap;html=1;boundedLbl=1;" vertex="1" parent="1">
          <mxGeometry x="795" y="-269" width="132" height="88" as="geometry" />
        </mxCell>
        <mxCell id="3TbSqOOEeaeC1xooJYjK-141" value="" style="endArrow=none;html=1;rounded=0;exitX=-0.014;exitY=0.331;exitDx=0;exitDy=0;exitPerimeter=0;entryX=0.906;entryY=0.23;entryDx=0;entryDy=0;entryPerimeter=0;" edge="1" parent="1">
          <mxGeometry width="50" height="50" relative="1" as="geometry">
            <mxPoint x="794.152" y="-240.87199999999984" as="sourcePoint" />
            <mxPoint x="928" y="-241" as="targetPoint" />
          </mxGeometry>
        </mxCell>
        <mxCell id="3TbSqOOEeaeC1xooJYjK-142" value="&lt;font style=&quot;font-size: 17px;&quot;&gt;5.0&lt;/font&gt;" style="text;strokeColor=none;align=center;fillColor=none;html=1;verticalAlign=middle;whiteSpace=wrap;rounded=0;" vertex="1" parent="1">
          <mxGeometry x="831" y="-264" width="57.5" height="20" as="geometry" />
        </mxCell>
        <mxCell id="3TbSqOOEeaeC1xooJYjK-145" value="&lt;font style=&quot;font-size: 15px;&quot;&gt;Report&lt;/font&gt;" style="text;strokeColor=none;align=center;fillColor=none;html=1;verticalAlign=middle;whiteSpace=wrap;rounded=0;" vertex="1" parent="1">
          <mxGeometry x="808.5" y="-236" width="105" height="27.5" as="geometry" />
        </mxCell>
        <mxCell id="3TbSqOOEeaeC1xooJYjK-146" value="Response accept/reject" style="text;strokeColor=none;align=center;fillColor=none;html=1;verticalAlign=middle;whiteSpace=wrap;rounded=0;" vertex="1" parent="1">
          <mxGeometry x="637.61" y="-717" width="144" height="20" as="geometry" />
        </mxCell>
        <mxCell id="3TbSqOOEeaeC1xooJYjK-147" value="Request for view order" style="text;strokeColor=none;align=center;fillColor=none;html=1;verticalAlign=middle;whiteSpace=wrap;rounded=0;" vertex="1" parent="1">
          <mxGeometry x="641.61" y="-615" width="100" height="30" as="geometry" />
        </mxCell>
        <mxCell id="3TbSqOOEeaeC1xooJYjK-149" value="Check order details" style="text;strokeColor=none;align=center;fillColor=none;html=1;verticalAlign=middle;whiteSpace=wrap;rounded=0;" vertex="1" parent="1">
          <mxGeometry x="942" y="-610" width="116.5" height="25" as="geometry" />
        </mxCell>
        <mxCell id="3TbSqOOEeaeC1xooJYjK-150" value="Response accept/reject" style="text;strokeColor=none;align=center;fillColor=none;html=1;verticalAlign=middle;whiteSpace=wrap;rounded=0;" vertex="1" parent="1">
          <mxGeometry x="613.37" y="-556" width="148.63" height="20" as="geometry" />
        </mxCell>
        <mxCell id="3TbSqOOEeaeC1xooJYjK-151" value="Response" style="text;strokeColor=none;align=center;fillColor=none;html=1;verticalAlign=middle;whiteSpace=wrap;rounded=0;" vertex="1" parent="1">
          <mxGeometry x="968.5" y="-554" width="70" height="22.5" as="geometry" />
        </mxCell>
        <mxCell id="3TbSqOOEeaeC1xooJYjK-152" value="Request for view payment" style="text;strokeColor=none;align=center;fillColor=none;html=1;verticalAlign=middle;whiteSpace=wrap;rounded=0;" vertex="1" parent="1">
          <mxGeometry x="601" y="-426" width="158.5" height="30" as="geometry" />
        </mxCell>
        <mxCell id="3TbSqOOEeaeC1xooJYjK-153" value="Check payment details" style="text;strokeColor=none;align=center;fillColor=none;html=1;verticalAlign=middle;whiteSpace=wrap;rounded=0;" vertex="1" parent="1">
          <mxGeometry x="942" y="-421" width="140" height="25" as="geometry" />
        </mxCell>
        <mxCell id="3TbSqOOEeaeC1xooJYjK-154" value="Response" style="text;strokeColor=none;align=center;fillColor=none;html=1;verticalAlign=middle;whiteSpace=wrap;rounded=0;" vertex="1" parent="1">
          <mxGeometry x="978" y="-373" width="70" height="22.5" as="geometry" />
        </mxCell>
        <mxCell id="3TbSqOOEeaeC1xooJYjK-155" value="Response accept/reject" style="text;strokeColor=none;align=center;fillColor=none;html=1;verticalAlign=middle;whiteSpace=wrap;rounded=0;" vertex="1" parent="1">
          <mxGeometry x="594" y="-374.5" width="163" height="20" as="geometry" />
        </mxCell>
        <mxCell id="3TbSqOOEeaeC1xooJYjK-158" value="Generate Report for Order" style="text;strokeColor=none;align=center;fillColor=none;html=1;verticalAlign=middle;whiteSpace=wrap;rounded=0;" vertex="1" parent="1">
          <mxGeometry x="950.5" y="-224.5" width="148" height="13" as="geometry" />
        </mxCell>
        <mxCell id="3TbSqOOEeaeC1xooJYjK-159" value="" style="endArrow=none;html=1;rounded=0;" edge="1" parent="1">
          <mxGeometry width="50" height="50" relative="1" as="geometry">
            <mxPoint x="1180" y="-245" as="sourcePoint" />
            <mxPoint x="940" y="-245" as="targetPoint" />
          </mxGeometry>
        </mxCell>
        <mxCell id="3TbSqOOEeaeC1xooJYjK-160" value="" style="endArrow=none;html=1;rounded=0;exitX=0.588;exitY=1.006;exitDx=0;exitDy=0;exitPerimeter=0;" edge="1" parent="1">
          <mxGeometry width="50" height="50" relative="1" as="geometry">
            <mxPoint x="1209.018" y="-325.71000000000015" as="sourcePoint" />
            <mxPoint x="1210" y="-204.28" as="targetPoint" />
          </mxGeometry>
        </mxCell>
        <mxCell id="FyqrWjoDdgcM4q49aba6-2" value="" style="endArrow=classic;html=1;rounded=0;entryX=0.482;entryY=-0.014;entryDx=0;entryDy=0;entryPerimeter=0;" edge="1" parent="1" target="3TbSqOOEeaeC1xooJYjK-110">
          <mxGeometry width="50" height="50" relative="1" as="geometry">
            <mxPoint x="858" y="-850" as="sourcePoint" />
            <mxPoint x="858" y="-790" as="targetPoint" />
          </mxGeometry>
        </mxCell>
        <mxCell id="FyqrWjoDdgcM4q49aba6-3" value="" style="endArrow=classic;html=1;rounded=0;entryX=0.482;entryY=-0.014;entryDx=0;entryDy=0;entryPerimeter=0;exitX=0.5;exitY=1;exitDx=0;exitDy=0;" edge="1" parent="1" source="3TbSqOOEeaeC1xooJYjK-110">
          <mxGeometry width="50" height="50" relative="1" as="geometry">
            <mxPoint x="859.8" y="-640" as="sourcePoint" />
            <mxPoint x="860.2099999999999" y="-615" as="targetPoint" />
          </mxGeometry>
        </mxCell>
        <mxCell id="FyqrWjoDdgcM4q49aba6-5" value="" style="endArrow=classic;html=1;rounded=0;entryX=0.482;entryY=0;entryDx=0;entryDy=0;entryPerimeter=0;exitX=0.5;exitY=1;exitDx=0;exitDy=0;" edge="1" parent="1" target="3TbSqOOEeaeC1xooJYjK-43">
          <mxGeometry width="50" height="50" relative="1" as="geometry">
            <mxPoint x="860.71" y="-484" as="sourcePoint" />
            <mxPoint x="860.92" y="-446" as="targetPoint" />
          </mxGeometry>
        </mxCell>
        <mxCell id="FyqrWjoDdgcM4q49aba6-6" value="" style="endArrow=classic;html=1;rounded=0;exitX=0.5;exitY=1;exitDx=0;exitDy=0;" edge="1" parent="1">
          <mxGeometry width="50" height="50" relative="1" as="geometry">
            <mxPoint x="862.86" y="-313" as="sourcePoint" />
            <mxPoint x="863" y="-270" as="targetPoint" />
          </mxGeometry>
        </mxCell>
      </root>
    </mxGraphModel>
  </diagram>
  <diagram name="Page-3" id="V1iJsbUXymVqUmNl5QEx">
    <mxGraphModel dx="1246" dy="598" grid="1" gridSize="10" guides="1" tooltips="1" connect="1" arrows="1" fold="1" page="1" pageScale="1" pageWidth="850" pageHeight="1100" math="0" shadow="0">
      <root>
        <mxCell id="0" />
        <mxCell id="1" parent="0" />
      </root>
    </mxGraphModel>
  </diagram>
</mxfile>
